<svg width="28" height="28" viewBox="0 0 28 28" fill="none" xmlns="http://www.w3.org/2000/svg">
<path fill-rule="evenodd" clip-rule="evenodd" d="M6.125 4.375C6.125 3.89175 6.51675 3.5 7 3.5H21C21.4832 3.5 21.875 3.89175 21.875 4.375V8.75C21.875 9.23325 21.4832 9.625 21 9.625C20.5168 9.625 20.125 9.23325 20.125 8.75V5.25H7.875V8.75C7.875 9.23325 7.48325 9.625 7 9.625C6.51675 9.625 6.125 9.23325 6.125 8.75V4.375Z" fill="#A0A3BD"/>
<path fill-rule="evenodd" clip-rule="evenodd" d="M6.125 16.625C6.125 16.1418 6.51675 15.75 7 15.75H21C21.4832 15.75 21.875 16.1418 21.875 16.625V24.0625C21.875 24.5457 21.4832 24.9375 21 24.9375H7C6.51675 24.9375 6.125 24.5457 6.125 24.0625V16.625ZM7.875 17.5V23.1875H20.125V17.5H7.875Z" fill="#A0A3BD"/>
<path fill-rule="evenodd" clip-rule="evenodd" d="M4.95469 9.625C4.33275 9.625 3.9375 10.0843 3.9375 10.5V18.375H7C7.48325 18.375 7.875 18.7668 7.875 19.25C7.875 19.7332 7.48325 20.125 7 20.125H3.0625C2.57925 20.125 2.1875 19.7332 2.1875 19.25V10.5C2.1875 8.99067 3.4985 7.875 4.95469 7.875H23.0453C24.5015 7.875 25.8125 8.99067 25.8125 10.5V19.25C25.8125 19.7332 25.4207 20.125 24.9375 20.125H21C20.5168 20.125 20.125 19.7332 20.125 19.25C20.125 18.7668 20.5168 18.375 21 18.375H24.0625V10.5C24.0625 10.0843 23.6673 9.625 23.0453 9.625H4.95469Z" fill="#A0A3BD"/>
<path d="M20.5625 14C21.2874 14 21.875 13.4124 21.875 12.6875C21.875 11.9626 21.2874 11.375 20.5625 11.375C19.8376 11.375 19.25 11.9626 19.25 12.6875C19.25 13.4124 19.8376 14 20.5625 14Z" fill="#A0A3BD"/>
</svg>
