<svg width="61" height="60" viewBox="0 0 61 60" fill="none" xmlns="http://www.w3.org/2000/svg">
<circle cx="31" cy="30" r="30" fill="#F2FCE5"/>
<path d="M31 20.25C29.0716 20.25 27.1866 20.8218 25.5832 21.8932C23.9798 22.9645 22.7301 24.4873 21.9922 26.2688C21.2542 28.0504 21.0611 30.0108 21.4373 31.9021C21.8136 33.7934 22.7422 35.5307 24.1057 36.8943C25.4693 38.2579 27.2066 39.1865 29.0979 39.5627C30.9892 39.9389 32.9496 39.7458 34.7312 39.0078C36.5127 38.2699 38.0355 37.0202 39.1068 35.4168C40.1782 33.8134 40.75 31.9284 40.75 30C40.745 27.4157 39.7162 24.9386 37.8888 23.1112C36.0614 21.2838 33.5843 20.255 31 20.25ZM35.6406 28.2938L30.1469 33.5438C30.0049 33.6774 29.8169 33.7512 29.6219 33.75C29.5266 33.7514 29.4319 33.7338 29.3434 33.6984C29.2549 33.663 29.1743 33.6105 29.1063 33.5438L26.3594 30.9188C26.2832 30.8523 26.2212 30.7711 26.1772 30.6801C26.1332 30.589 26.1081 30.49 26.1033 30.389C26.0985 30.2881 26.1142 30.1871 26.1494 30.0924C26.1846 29.9976 26.2387 29.9109 26.3082 29.8375C26.3778 29.7642 26.4615 29.7056 26.5543 29.6654C26.647 29.6252 26.747 29.6042 26.8481 29.6036C26.9492 29.603 27.0494 29.6229 27.1426 29.662C27.2358 29.7011 27.3202 29.7587 27.3906 29.8313L29.6219 31.9594L34.6094 27.2063C34.7552 27.079 34.9446 27.0131 35.1379 27.0222C35.3312 27.0314 35.5135 27.1149 35.6467 27.2553C35.7798 27.3958 35.8536 27.5822 35.8524 27.7758C35.8513 27.9693 35.7754 28.1549 35.6406 28.2938Z" fill="#67932A"/>
</svg>
