<svg width="61" height="60" viewBox="0 0 61 60" fill="none" xmlns="http://www.w3.org/2000/svg">
<circle cx="31" cy="30" r="30" fill="#FCE3CD"/>
<path fill-rule="evenodd" clip-rule="evenodd" d="M30.9999 21.075C26.0785 21.075 22.0748 25.0787 22.0748 30.0001C22.0748 34.9215 26.0785 38.9252 30.9999 38.9252C35.9213 38.9252 39.925 34.9215 39.925 30.0001C39.925 25.0787 35.9213 21.075 30.9999 21.075ZM31.0001 40.5002C25.2104 40.5002 20.5 35.7899 20.5 30.0001C20.5 24.2104 25.2104 19.5 31.0001 19.5C36.7899 19.5 41.5002 24.2104 41.5002 30.0001C41.5002 35.7899 36.7899 40.5002 31.0001 40.5002Z" fill="#ED9441"/>
<path fill-rule="evenodd" clip-rule="evenodd" d="M30.9926 31.4417C30.5579 31.4417 30.2051 31.0889 30.2051 30.6542V26.0142C30.2051 25.5795 30.5579 25.2267 30.9926 25.2267C31.4273 25.2267 31.7801 25.5795 31.7801 26.0142V30.6542C31.7801 31.0889 31.4273 31.4417 30.9926 31.4417Z" fill="#ED9441"/>
<path fill-rule="evenodd" clip-rule="evenodd" d="M31.0045 35.0359C30.4238 35.0359 29.9492 34.5665 29.9492 33.9859C29.9492 33.4052 30.4144 32.9359 30.994 32.9359H31.0045C31.5851 32.9359 32.0545 33.4052 32.0545 33.9859C32.0545 34.5665 31.5851 35.0359 31.0045 35.0359Z" fill="#ED9441"/>
</svg>
