<svg width="61" height="60" viewBox="0 0 61 60" fill="none" xmlns="http://www.w3.org/2000/svg">
<rect x="0.5" width="60" height="60" rx="30" fill="#BEE882"/>
<path d="M30.9313 13.4995C26.6083 13.4995 23.0938 17.014 23.0938 21.337C23.0938 25.5775 26.4103 29.0095 30.7333 29.158C30.8653 29.1415 30.9973 29.1415 31.0963 29.158C31.1293 29.158 31.1457 29.158 31.1787 29.158C31.1952 29.158 31.1952 29.158 31.2118 29.158C35.4358 29.0095 38.7522 25.5775 38.7688 21.337C38.7688 17.014 35.2542 13.4995 30.9313 13.4995Z" fill="#33589C"/>
<path d="M39.3125 33.5474C34.709 30.4784 27.2015 30.4784 22.565 33.5474C20.4695 34.9499 19.3145 36.8474 19.3145 38.8769C19.3145 40.9064 20.4695 42.7874 22.5485 44.1734C24.8585 45.7244 27.8945 46.4999 30.9305 46.4999C33.9665 46.4999 37.0025 45.7244 39.3125 44.1734C41.3915 42.7709 42.5465 40.8899 42.5465 38.8439C42.53 36.8144 41.3915 34.9334 39.3125 33.5474Z" fill="#33589C"/>
</svg>
