<svg width="20" height="20" viewBox="0 0 20 20" fill="none" xmlns="http://www.w3.org/2000/svg">
<g clip-path="url(#clip0_3922_6525)">
<path d="M15.8926 15.8925C19.1469 12.6381 19.1468 7.36169 15.8924 4.10738C12.638 0.853066 7.36161 0.853158 4.1073 4.10758C0.852985 7.36201 0.853077 12.6384 4.1075 15.8927C7.36193 19.147 12.6383 19.1469 15.8926 15.8925Z" fill="white"/>
<path d="M15.8954 4.10481C12.6447 0.854059 7.35527 0.854059 4.10491 4.10481C0.854552 7.35557 0.854155 12.6446 4.10491 15.8953C7.35566 19.1461 12.6451 19.1461 15.8954 15.8953C19.1458 12.6446 19.1462 7.35557 15.8954 4.10481ZM4.66629 4.66619C7.60737 1.72511 12.393 1.72511 15.3341 4.66619L4.66629 15.334C1.7252 12.3929 1.7252 7.60728 4.66629 4.66619Z" fill="#010712"/>
</g>
<defs>
<clipPath id="clip0_3922_6525">
<rect width="20" height="20" fill="white"/>
</clipPath>
</defs>
</svg>
