<svg width="24" height="24" viewBox="0 0 24 24" fill="none" xmlns="http://www.w3.org/2000/svg">
<path fill-rule="evenodd" clip-rule="evenodd" d="M12.5061 3.78519C10.5026 3.65963 8.52227 4.26967 6.93674 5.50077C5.35121 6.73187 4.26956 8.49937 3.89486 10.4715C3.52016 12.4435 3.87817 14.4846 4.90169 16.2114C5.0065 16.3882 5.03414 16.6004 4.97814 16.7981L4.09973 19.9006L7.20219 19.0222L7.40651 19.7438L7.78892 19.0986C9.51574 20.1222 11.5568 20.4802 13.5289 20.1055C15.501 19.7308 17.2685 18.6491 18.4996 17.0636C19.7307 15.4781 20.3407 13.4977 20.2151 11.4943C20.0896 9.49082 19.2371 7.6021 17.8176 6.18268C16.3982 4.76326 14.5095 3.91074 12.5061 3.78519ZM7.30834 20.5511C9.28723 21.636 11.5851 22.0016 13.8089 21.5791C16.1399 21.1362 18.2291 19.8577 19.6843 17.9835C21.1395 16.1094 21.8606 13.7685 21.7122 11.4004C21.5638 9.03232 20.5561 6.79981 18.8783 5.12202C17.2005 3.44423 14.968 2.43654 12.5999 2.28813C10.2318 2.13972 7.89094 2.86079 6.0168 4.31599C4.14266 5.77118 2.86413 7.86041 2.42122 10.1915C1.99871 12.4152 2.36437 14.7131 3.44923 16.692L2.65435 19.4994C2.5803 19.755 2.57602 20.0258 2.64197 20.2836C2.70824 20.5427 2.84298 20.7792 3.03207 20.9683C3.22116 21.1573 3.45763 21.2921 3.71669 21.3584C3.97454 21.4243 4.24533 21.42 4.50093 21.346L7.30834 20.5511Z" fill="#67932A"/>
<path d="M12.0002 13.1251C12.6215 13.1251 13.1252 12.6214 13.1252 12.0001C13.1252 11.3788 12.6215 10.8751 12.0002 10.8751C11.3789 10.8751 10.8752 11.3788 10.8752 12.0001C10.8752 12.6214 11.3789 13.1251 12.0002 13.1251Z" fill="#67932A"/>
<path d="M7.50018 13.1251C8.1215 13.1251 8.62518 12.6214 8.62518 12.0001C8.62518 11.3788 8.1215 10.8751 7.50018 10.8751C6.87886 10.8751 6.37518 11.3788 6.37518 12.0001C6.37518 12.6214 6.87886 13.1251 7.50018 13.1251Z" fill="#67932A"/>
<path d="M16.5002 13.1251C17.1215 13.1251 17.6252 12.6214 17.6252 12.0001C17.6252 11.3788 17.1215 10.8751 16.5002 10.8751C15.8789 10.8751 15.3752 11.3788 15.3752 12.0001C15.3752 12.6214 15.8789 13.1251 16.5002 13.1251Z" fill="#67932A"/>
</svg>
