<svg width="28" height="28" viewBox="0 0 28 28" fill="none" xmlns="http://www.w3.org/2000/svg">
<path fill-rule="evenodd" clip-rule="evenodd" d="M12.8226 3.08034C13.1448 2.78705 13.5648 2.62451 14.0005 2.62451C14.4363 2.62451 14.8563 2.78705 15.1785 3.08034L15.1903 3.09123L23.9352 11.3486C24.1123 11.5114 24.254 11.7089 24.3514 11.929C24.4501 12.152 24.5011 12.3932 24.5011 12.637V22.7499C24.5011 23.2141 24.3167 23.6592 23.9885 23.9874C23.6603 24.3156 23.2152 24.4999 22.7511 24.4999H17.5C17.0359 24.4999 16.5908 24.3156 16.2626 23.9874C15.9344 23.6592 15.75 23.2141 15.75 22.7499V17.4999H12.25V22.7499C12.25 23.2141 12.0656 23.6592 11.7374 23.9874C11.4092 24.3155 10.9641 24.4999 10.5 24.4999H5.25C4.78587 24.4999 4.34075 24.3155 4.01256 23.9874C3.68437 23.6592 3.5 23.2141 3.5 22.7499V12.6371C3.50002 12.3932 3.55102 12.152 3.64972 11.929C3.74709 11.709 3.88876 11.5114 4.06586 11.3487L12.8108 3.09123L12.8226 3.08034ZM14.0005 4.37471L5.26229 12.6258L5.25 12.6372V22.7499H10.5V17.4999C10.5 17.0358 10.6844 16.5907 11.0126 16.2625C11.3408 15.9343 11.7859 15.7499 12.25 15.7499H15.75C16.2141 15.7499 16.6592 15.9343 16.9874 16.2625C17.3156 16.5907 17.5 17.0358 17.5 17.4999V22.7499H22.7511V12.6372L22.7388 12.6258L14.0005 4.37471Z" fill="#A0A3BD"/>
</svg>
