<svg width="36" height="36" viewBox="0 0 36 36" fill="none" xmlns="http://www.w3.org/2000/svg">
<path d="M22.8406 7.63051C22.6226 7.40914 22.3266 7.28474 22.0177 7.28474C21.7088 7.28474 21.4128 7.40914 21.1948 7.63051C20.8791 7.97274 19.7461 9.22282 18.3787 10.9222C17.0116 8.63022 15.5183 6.41795 13.9054 4.29563C13.6924 4.01891 13.365 3.85719 13.0181 3.85693H13.0176C12.6711 3.85693 12.3439 4.0184 12.1304 4.29462C11.4153 5.2218 5.14258 13.4663 5.14258 17.5056C5.14534 19.4624 5.86001 21.3498 7.15022 22.8083C8.44069 24.2668 10.2168 25.1945 12.1401 25.4146C12.8676 28.7249 15.1699 31.4559 18.2875 32.7068C21.4053 33.9576 24.9333 33.5656 27.7079 31.6603C30.4827 29.7549 32.1434 26.5838 32.1426 23.1924C32.1426 17.8727 23.7931 8.66405 22.8404 7.63067L22.8406 7.63051ZM7.39276 17.5054C7.39276 15.3246 10.5442 10.2737 13.0135 6.88505C14.413 8.80005 15.704 10.7935 16.8802 12.8562C14.4697 16.0936 11.9648 20.1483 11.903 23.0782V23.0785C10.6314 22.8167 9.48809 22.1193 8.66639 21.104C7.84449 20.0885 7.39475 18.8176 7.39276 17.5056V17.5054ZM22.0178 31.1538C19.93 31.1515 17.9281 30.312 16.4518 28.8194C14.9755 27.3269 14.145 25.303 14.1428 23.1923C14.1428 20.8243 16.6439 16.9124 19.0973 13.6865L19.101 13.6814C20.1482 12.3051 21.1868 11.0518 22.0177 10.101C24.7966 13.2816 29.8927 19.8128 29.8927 23.1924C29.8902 25.3031 29.0598 27.3267 27.5835 28.8193C26.1071 30.3118 24.1055 31.1514 22.0177 31.1539L22.0178 31.1538Z" fill="#7DB928"/>
</svg>
