<svg width="76" height="76" viewBox="0 0 76 76" fill="none" xmlns="http://www.w3.org/2000/svg">
<path d="M63.4422 24.4329L46.8172 7.80785C46.3647 7.36676 45.7569 7.12148 45.125 7.12504H16.625C15.3652 7.12504 14.157 7.62548 13.2662 8.51628C12.3754 9.40708 11.875 10.6153 11.875 11.875V64.125C11.875 65.3848 12.3754 66.593 13.2662 67.4838C14.157 68.3746 15.3652 68.875 16.625 68.875H59.375C60.6348 68.875 61.843 68.3746 62.7338 67.4838C63.6246 66.593 64.125 65.3848 64.125 64.125V26.125C64.1286 25.4932 63.8833 24.8853 63.4422 24.4329ZM47.5 52.25H28.5C27.8701 52.25 27.266 51.9998 26.8206 51.5544C26.3752 51.109 26.125 50.5049 26.125 49.875C26.125 49.2451 26.3752 48.6411 26.8206 48.1957C27.266 47.7503 27.8701 47.5 28.5 47.5H47.5C48.1299 47.5 48.734 47.7503 49.1794 48.1957C49.6248 48.6411 49.875 49.2451 49.875 49.875C49.875 50.5049 49.6248 51.109 49.1794 51.5544C48.734 51.9998 48.1299 52.25 47.5 52.25ZM47.5 42.75H28.5C27.8701 42.75 27.266 42.4998 26.8206 42.0544C26.3752 41.609 26.125 41.0049 26.125 40.375C26.125 39.7451 26.3752 39.1411 26.8206 38.6957C27.266 38.2503 27.8701 38 28.5 38H47.5C48.1299 38 48.734 38.2503 49.1794 38.6957C49.6248 39.1411 49.875 39.7451 49.875 40.375C49.875 41.0049 49.6248 41.609 49.1794 42.0544C48.734 42.4998 48.1299 42.75 47.5 42.75ZM45.125 26.125V13.0625L58.1875 26.125H45.125Z" fill="#7DB928"/>
</svg>
