<svg width="28" height="28" viewBox="0 0 28 28" fill="none" xmlns="http://www.w3.org/2000/svg">
<path fill-rule="evenodd" clip-rule="evenodd" d="M14 12.25C13.0335 12.25 12.25 13.0335 12.25 14C12.25 14.9665 13.0335 15.75 14 15.75C14.9665 15.75 15.75 14.9665 15.75 14C15.75 13.0335 14.9665 12.25 14 12.25ZM10.5 14C10.5 12.067 12.067 10.5 14 10.5C15.933 10.5 17.5 12.067 17.5 14C17.5 15.933 15.933 17.5 14 17.5C12.067 17.5 10.5 15.933 10.5 14Z" fill="#A0A3BD"/>
<path fill-rule="evenodd" clip-rule="evenodd" d="M5.25 12.25C4.2835 12.25 3.5 13.0335 3.5 14C3.5 14.9665 4.2835 15.75 5.25 15.75C6.2165 15.75 7 14.9665 7 14C7 13.0335 6.2165 12.25 5.25 12.25ZM1.75 14C1.75 12.067 3.317 10.5 5.25 10.5C7.183 10.5 8.75 12.067 8.75 14C8.75 15.933 7.183 17.5 5.25 17.5C3.317 17.5 1.75 15.933 1.75 14Z" fill="#A0A3BD"/>
<path fill-rule="evenodd" clip-rule="evenodd" d="M22.75 12.25C21.7835 12.25 21 13.0335 21 14C21 14.9665 21.7835 15.75 22.75 15.75C23.7165 15.75 24.5 14.9665 24.5 14C24.5 13.0335 23.7165 12.25 22.75 12.25ZM19.25 14C19.25 12.067 20.817 10.5 22.75 10.5C24.683 10.5 26.25 12.067 26.25 14C26.25 15.933 24.683 17.5 22.75 17.5C20.817 17.5 19.25 15.933 19.25 14Z" fill="#A0A3BD"/>
</svg>
