<svg width="279" height="235" viewBox="0 0 279 235" fill="none" xmlns="http://www.w3.org/2000/svg">
<g opacity="0.8">
<path d="M137.414 234.35C212.901 234.35 274.096 228.45 274.096 221.172C274.096 213.894 212.901 207.994 137.414 207.994C61.9269 207.994 0.732422 213.894 0.732422 221.172C0.732422 228.45 61.9269 234.35 137.414 234.35Z" fill="#7DB928"/>
</g>
<path d="M227.759 47.625L218.947 61.7239L201.436 70.9587L194.429 73.144C193.92 73.301 193.484 73.6364 193.202 74.0886C193.202 74.0886 189.346 79.3616 189.086 81.3989C189.022 81.9276 190.841 81.0746 191.2 80.694C191.962 79.9185 193.625 77.5851 193.625 77.5851C193.625 77.5851 197.15 79.2206 198.363 79.1149C199.709 79.0021 202.155 77.5499 203.142 76.6264C203.897 75.7743 204.603 74.8799 205.257 73.9476C205.257 73.9476 220.998 69.6616 224.995 66.1932C228.168 63.451 233.335 51.622 233.335 51.622L227.759 47.625Z" fill="#CE7A63"/>
<path d="M236.747 35.0557C236.747 35.0557 231.39 36.1906 224.094 48.8937L233.709 54.2936C233.709 54.2936 242.19 36.9943 236.747 35.0557Z" fill="#263238"/>
<path d="M224.24 48.3223L233.792 53.8279C234.002 53.947 234.159 54.1414 234.231 54.3718C234.303 54.6021 234.285 54.8512 234.18 55.0686L233.8 55.8582C233.742 55.9748 233.662 56.0785 233.563 56.1631C233.465 56.2477 233.35 56.3114 233.226 56.3503C233.102 56.3892 232.972 56.4025 232.842 56.3894C232.713 56.3763 232.588 56.337 232.474 56.2741L222.788 50.8883C222.678 50.8273 222.581 50.7451 222.503 50.6463C222.424 50.5475 222.366 50.4342 222.332 50.3128C222.298 50.1915 222.289 50.0646 222.304 49.9395C222.319 49.8144 222.359 49.6936 222.422 49.5841L222.929 48.6818C222.991 48.5719 223.075 48.4753 223.175 48.3977C223.274 48.32 223.388 48.2629 223.51 48.2294C223.632 48.196 223.759 48.187 223.885 48.203C224.01 48.2189 224.131 48.2595 224.24 48.3223Z" fill="#263238"/>
<path opacity="0.8" d="M224.24 48.3223L233.792 53.8279C234.002 53.947 234.159 54.1414 234.231 54.3718C234.303 54.6021 234.285 54.8512 234.18 55.0686L233.8 55.8582C233.742 55.9748 233.662 56.0785 233.563 56.1631C233.465 56.2477 233.35 56.3114 233.226 56.3503C233.102 56.3892 232.972 56.4025 232.842 56.3894C232.713 56.3763 232.588 56.337 232.474 56.2741L222.788 50.8883C222.678 50.8273 222.581 50.7451 222.503 50.6463C222.424 50.5475 222.366 50.4342 222.332 50.3128C222.298 50.1915 222.289 50.0646 222.304 49.9395C222.319 49.8144 222.359 49.6936 222.422 49.5841L222.929 48.6818C222.991 48.5719 223.075 48.4753 223.175 48.3977C223.274 48.32 223.388 48.2629 223.51 48.2294C223.632 48.196 223.759 48.187 223.885 48.203C224.01 48.2189 224.131 48.2595 224.24 48.3223Z" fill="black"/>
<path opacity="0.2" d="M233.709 54.2725C233.709 54.2725 235.21 51.206 236.529 47.5121L236.19 45.9965L232.073 40.6953C230.062 43.7909 228.333 47.0608 226.906 50.4658L233.709 54.2725Z" fill="black"/>
<path d="M275.456 204.172C275.914 210.22 276.161 214.175 276.161 214.175L269.464 215.169C269.464 215.169 268.681 211.101 267.504 204.856L275.456 204.172Z" fill="#CE7A63"/>
<path d="M266.291 213.407C265.452 213.407 264.585 213.308 264.296 212.955C264.22 212.853 264.18 212.73 264.18 212.603C264.18 212.476 264.22 212.353 264.296 212.251C264.348 212.156 264.419 212.073 264.503 212.007C264.588 211.94 264.685 211.891 264.789 211.863C265.903 211.51 268.314 212.772 268.399 212.829C268.428 212.844 268.451 212.868 268.466 212.897C268.481 212.926 268.487 212.958 268.483 212.991C268.477 213.024 268.462 213.054 268.44 213.079C268.417 213.104 268.388 213.122 268.356 213.132C267.677 213.28 266.986 213.372 266.291 213.407ZM265.177 212.131C265.074 212.133 264.972 212.149 264.874 212.18C264.809 212.194 264.747 212.222 264.693 212.262C264.64 212.302 264.595 212.354 264.564 212.413C264.458 212.617 264.5 212.709 264.564 212.765C264.888 213.188 266.587 213.146 267.835 212.948C267.004 212.507 266.098 212.228 265.163 212.124L265.177 212.131Z" fill="#678DD5"/>
<path d="M268.308 213.132H268.237C267.42 212.8 265.756 211.397 265.869 210.636C265.869 210.453 266.01 210.227 266.447 210.164C266.606 210.141 266.768 210.152 266.923 210.194C267.078 210.237 267.223 210.31 267.349 210.411C268.23 211.08 268.47 212.892 268.484 212.977C268.485 213.005 268.479 213.033 268.467 213.059C268.455 213.085 268.436 213.107 268.414 213.125C268.381 213.141 268.343 213.143 268.308 213.132ZM266.567 210.467H266.475C266.186 210.502 266.172 210.615 266.165 210.657C266.165 211.115 267.236 212.222 268.089 212.687C267.983 211.926 267.646 211.215 267.124 210.65C266.967 210.522 266.768 210.459 266.567 210.474V210.467Z" fill="#678DD5"/>
<path d="M268.983 212.173L276.336 211.919C276.47 211.916 276.601 211.958 276.709 212.039C276.816 212.119 276.893 212.234 276.928 212.363L278.458 218.299C278.491 218.424 278.499 218.555 278.481 218.683C278.463 218.812 278.421 218.936 278.355 219.048C278.29 219.16 278.203 219.258 278.099 219.336C277.996 219.414 277.878 219.471 277.753 219.504C277.685 219.511 277.616 219.511 277.548 219.504C274.898 219.547 272.536 219.504 269.237 219.603C265.346 219.73 266.347 220.167 261.772 220.385C259.015 220.512 258.409 217.397 259.572 217.206C264.902 216.353 265.402 214.718 267.397 212.73C267.84 212.356 268.404 212.158 268.983 212.173Z" fill="#263238"/>
<path opacity="0.2" d="M275.455 204.172L267.531 204.877C267.7 205.807 267.87 206.674 268.025 207.499L275.659 206.971C275.575 206.082 275.504 205.159 275.455 204.172Z" fill="black"/>
<path d="M241.703 203.016C241.09 209.05 240.667 212.998 240.667 212.998L233.899 212.801C233.899 212.801 233.843 208.648 233.779 202.297L241.703 203.016Z" fill="#CE7A63"/>
<path d="M230.847 211.616C230.009 211.616 229.134 211.51 228.852 211.158C228.776 211.056 228.734 210.932 228.734 210.805C228.734 210.678 228.776 210.554 228.852 210.453C228.904 210.359 228.973 210.277 229.057 210.21C229.14 210.143 229.236 210.094 229.339 210.065C230.46 209.72 232.864 210.996 232.948 211.052C232.978 211.069 233.001 211.094 233.016 211.124C233.031 211.154 233.037 211.188 233.033 211.221C233.026 211.253 233.011 211.282 232.988 211.306C232.966 211.33 232.937 211.347 232.906 211.355C232.229 211.502 231.54 211.59 230.847 211.616ZM229.734 210.333C229.631 210.339 229.53 210.356 229.43 210.382C229.366 210.397 229.306 210.425 229.254 210.466C229.201 210.506 229.158 210.557 229.127 210.615C229.015 210.819 229.057 210.911 229.127 210.967C229.452 211.397 231.151 211.355 232.398 211.172C231.571 210.725 230.667 210.441 229.734 210.333Z" fill="#678DD5"/>
<path d="M232.869 211.37C232.849 211.377 232.827 211.377 232.806 211.37C231.988 211.038 230.332 209.621 230.451 208.86C230.451 208.677 230.6 208.451 231.037 208.395C231.195 208.373 231.356 208.384 231.51 208.426C231.663 208.469 231.807 208.542 231.932 208.641C232.806 209.346 233.039 211.13 233.053 211.215C233.055 211.243 233.05 211.272 233.038 211.298C233.025 211.324 233.006 211.346 232.982 211.363C232.947 211.379 232.907 211.382 232.869 211.37ZM231.149 208.684H231.044C230.755 208.684 230.741 208.832 230.733 208.867C230.733 209.325 231.798 210.439 232.644 210.911C232.546 210.15 232.213 209.438 231.692 208.874C231.536 208.745 231.338 208.678 231.135 208.684H231.149Z" fill="#678DD5"/>
<path d="M233.56 210.403L240.905 210.199C241.04 210.193 241.173 210.234 241.281 210.315C241.389 210.396 241.465 210.512 241.498 210.643L242.992 216.586C243.025 216.711 243.033 216.842 243.015 216.97C242.998 217.099 242.955 217.222 242.889 217.334C242.824 217.446 242.737 217.544 242.634 217.623C242.53 217.701 242.413 217.758 242.287 217.791C242.219 217.798 242.151 217.798 242.083 217.791C239.432 217.791 237.07 217.742 233.771 217.84C229.88 217.946 230.881 218.383 226.306 218.581C223.55 218.693 222.957 215.57 224.121 215.387C229.457 214.562 229.965 212.927 231.974 210.953C232.42 210.586 232.982 210.391 233.56 210.403Z" fill="#263238"/>
<path opacity="0.2" d="M233.815 205.321L241.435 205.645C241.52 204.82 241.611 203.946 241.703 203.015L233.779 202.311C233.793 203.375 233.8 204.376 233.815 205.321Z" fill="black"/>
<path d="M229.994 92.3108L230.459 138.365L233.075 200.907L243.191 202.007C245.45 190.213 246.688 178.245 246.892 166.238C247.012 158.752 245.263 151.265 245.27 144.385C245.27 139.309 247.04 135.545 248.795 124.407C250.487 113.833 252.193 101.207 252.418 92.0781L229.994 92.3108Z" fill="#678DD5"/>
<path opacity="0.2" d="M250.077 116.259L248.505 110.182L244.832 109.428C244.832 109.428 244.049 127.488 245.826 139.388C246.481 135.955 247.659 131.81 248.843 124.408C249.238 121.764 249.661 119.043 250.077 116.259Z" fill="black"/>
<path d="M241.695 92.311L250.958 143.222L266.693 204.785L275.949 204.08C275.569 191.651 274.346 179.263 272.29 167C270.774 158.35 267.355 149.961 265.628 142.284C264.458 137.068 265.163 132.81 264.691 120.932C264.324 111.725 265.198 101.088 262.061 92.2969L241.695 92.311Z" fill="#678DD5"/>
<path d="M229.528 53.5394C230.705 40.8503 233.052 33.096 244.099 33.5683C255.145 34.0406 265.952 32.8633 264.07 47.8998C262.188 62.9363 263.365 92.9457 263.365 92.9457H229.295C229.295 92.9457 229.591 82.146 229.647 70.2747C229.676 64.0642 229.126 57.903 229.528 53.5394Z" fill="#263238"/>
<path d="M240.589 33.7305C243.676 33.1736 244.727 31.9752 244.438 29.3528C244.374 28.698 244.268 28.0481 244.12 27.4071L248.921 23.396L252.446 20.4775C251.494 24.7425 251.001 33.6741 253.553 34.2945C252.354 35.3448 251.219 37.22 249.591 38.0236C248.139 38.7286 246.066 38.8766 244.127 38.8766C242.837 38.7004 241.421 38.3831 240.899 37.6711C239.736 36.0921 240.589 33.7305 240.589 33.7305Z" fill="#CE7A63"/>
<path opacity="0.2" d="M244.121 27.4066C244.269 28.0476 244.375 28.6975 244.438 29.3523C246.243 28.9998 248.95 27.3925 249.197 25.3623C249.183 24.6982 249.09 24.038 248.922 23.3955L244.121 27.4066Z" fill="black"/>
<path d="M252.079 11.8485C252.783 17.6079 253.538 20.9353 251.204 24.4671C247.743 29.7753 240.299 28.6967 237.895 23.2757C235.703 18.4398 234.934 9.82535 240.01 6.35703C241.103 5.58467 242.379 5.11181 243.712 4.98544C245.044 4.85907 246.386 5.08359 247.605 5.63669C248.824 6.18979 249.877 7.05221 250.659 8.13825C251.441 9.22429 251.926 10.4961 252.064 11.8274L252.079 11.8485Z" fill="#CE7A63"/>
<path d="M243.732 15.3597C243.824 15.832 243.648 16.2549 243.344 16.3184C243.041 16.3818 242.731 16.0646 242.64 15.6134C242.548 15.1623 242.724 14.7182 243.02 14.6547C243.316 14.5913 243.669 14.9014 243.732 15.3597Z" fill="#263238"/>
<path d="M238.346 16.3882C238.438 16.8534 238.262 17.2835 237.966 17.3399C237.669 17.3963 237.352 17.0861 237.261 16.6349C237.169 16.1837 237.345 15.7396 237.648 15.6762C237.951 15.6127 238.262 15.9229 238.346 16.3882Z" fill="#263238"/>
<path d="M240.47 16.3252C240.216 17.6401 239.814 18.9219 239.271 20.146C239.588 20.2888 239.932 20.3627 240.28 20.3627C240.627 20.3627 240.971 20.2888 241.288 20.146L240.47 16.3252Z" fill="#BA4D3C"/>
<path d="M244.438 12.7507C244.473 12.7236 244.5 12.6869 244.516 12.6449C244.529 12.6121 244.536 12.5769 244.536 12.5413C244.536 12.5057 244.529 12.4704 244.515 12.4376C244.502 12.4048 244.481 12.3751 244.456 12.3502C244.431 12.3252 244.401 12.3056 244.368 12.2925C243.969 12.1282 243.537 12.0623 243.107 12.1003C242.678 12.1384 242.264 12.2792 241.9 12.511C241.872 12.5324 241.848 12.5594 241.829 12.5903C241.811 12.6212 241.8 12.6554 241.795 12.6909C241.791 12.7264 241.793 12.7624 241.803 12.7969C241.812 12.8314 241.829 12.8636 241.851 12.8917C241.872 12.9208 241.898 12.9455 241.929 12.9642C241.96 12.9829 241.994 12.9952 242.029 13.0005C242.065 13.0057 242.101 13.0038 242.136 12.9948C242.17 12.9858 242.203 12.9699 242.232 12.9481C242.52 12.7632 242.849 12.6512 243.191 12.6217C243.532 12.5923 243.875 12.6462 244.191 12.7789C244.231 12.795 244.275 12.8009 244.318 12.796C244.361 12.7911 244.402 12.7755 244.438 12.7507Z" fill="#263238"/>
<path d="M238.467 13.2518C238.491 13.2152 238.508 13.1746 238.517 13.132C238.522 13.0967 238.52 13.0609 238.51 13.0265C238.501 12.9921 238.486 12.9598 238.464 12.9316C238.442 12.9034 238.415 12.8798 238.384 12.8621C238.353 12.8445 238.319 12.8332 238.284 12.8288C237.858 12.77 237.424 12.8149 237.019 12.9597C236.614 13.1045 236.25 13.345 235.958 13.6607C235.934 13.6873 235.917 13.7184 235.906 13.7522C235.896 13.786 235.892 13.8217 235.896 13.8568C235.9 13.892 235.911 13.926 235.929 13.9566C235.947 13.9871 235.971 14.0136 236 14.0343C236.028 14.0575 236.06 14.075 236.094 14.0857C236.129 14.0965 236.165 14.1004 236.201 14.0971C236.237 14.0938 236.272 14.0835 236.304 14.0667C236.336 14.0498 236.365 14.0269 236.388 13.999C236.618 13.7459 236.907 13.5535 237.229 13.4391C237.551 13.3247 237.897 13.2919 238.235 13.3434C238.278 13.3489 238.322 13.3433 238.363 13.3273C238.403 13.3113 238.439 13.2853 238.467 13.2518Z" fill="#263238"/>
<path d="M251.227 17.5941C251.227 17.5941 249.761 17.5941 249.465 15.007C249.279 13.4313 248.821 11.8999 248.111 10.4812C248.111 10.4812 244.706 10.4812 243.473 8.78231C243.473 8.78231 235.112 13.3222 232.426 10.0724C229.902 7.01994 235.88 6.66748 235.88 6.66748C235.88 6.66748 233.018 3.43178 234.717 1.9091C236.416 0.38642 240.709 2.90307 240.709 2.90307C240.709 2.90307 239.8 -0.325579 243.191 0.0268937C246.581 0.379366 247.47 2.72683 247.47 2.72683C247.47 2.72683 252.052 0.908079 253.99 3.31899C255.245 4.87692 253.321 6.54763 253.321 6.54763C253.321 6.54763 255.866 6.62518 256.514 8.78231C257.043 10.5447 255.245 11.7995 254.695 12.1872C253.088 13.301 252.792 19.0604 252.792 19.0604L251.227 17.5941Z" fill="#263238"/>
<path d="M235.745 8.30957C235.745 8.30957 231.734 10.22 232.53 12.8565C233.327 15.493 235.999 14.9713 236.873 14.2664C237.944 13.364 239.636 9.39519 239.636 9.39519L235.745 8.30957Z" fill="#263238"/>
<path d="M255.259 16.7271C254.944 18.1287 254.148 19.3757 253.01 20.2518C251.551 21.3304 250.444 20.0262 250.521 18.1934C250.599 16.5438 251.445 13.9637 253.059 13.6606C254.674 13.3575 255.653 14.9365 255.259 16.7271Z" fill="#CE7A63"/>
<path d="M244.438 22.0071C244.685 21.8799 244.921 21.7313 245.143 21.563C245.175 21.5391 245.196 21.5037 245.203 21.4643C245.209 21.4249 245.2 21.3845 245.178 21.3515C245.165 21.3376 245.149 21.3266 245.131 21.3191C245.114 21.3115 245.095 21.3076 245.076 21.3076C245.057 21.3076 245.038 21.3115 245.02 21.3191C245.003 21.3266 244.987 21.3376 244.974 21.3515C244.474 21.7392 243.891 22.0049 243.27 22.1273C242.649 22.2497 242.009 22.2254 241.399 22.0564C241.363 22.0426 241.323 22.0438 241.287 22.0596C241.251 22.0754 241.223 22.1047 241.209 22.141C241.195 22.1785 241.196 22.22 241.212 22.2567C241.228 22.2935 241.257 22.3228 241.294 22.3384C242.345 22.6385 243.472 22.5198 244.438 22.0071Z" fill="#263238"/>
<path d="M241.822 33.3077C241.844 33.3048 241.865 33.3078 241.884 33.3165C241.904 33.3252 241.92 33.3392 241.932 33.3569C241.944 33.3745 241.95 33.3952 241.951 33.4164C241.952 33.4377 241.946 33.4586 241.935 33.4769C241.336 34.4427 239.073 38.5737 244.36 38.6512C250 38.7358 252.82 34.2876 253.158 33.7166C253.169 33.6989 253.185 33.6848 253.203 33.676C253.222 33.6673 253.243 33.6642 253.264 33.6673L254.779 33.8153C254.811 33.8196 254.841 33.8302 254.869 33.8464C254.896 33.8626 254.92 33.8842 254.939 33.9098C254.958 33.9354 254.972 33.9645 254.98 33.9955C254.987 34.0265 254.989 34.0587 254.984 34.0902C254.194 37.6326 252.061 40.7306 249.034 42.7329C248.658 41.7366 248.004 40.8693 247.149 40.2344C246.294 39.5995 245.275 39.2237 244.212 39.1517C240.511 38.9121 237.579 41.9081 237.579 41.9081C237.579 41.9081 236.416 36.91 240.131 33.5897C240.167 33.555 240.214 33.5327 240.265 33.5263L241.822 33.3077Z" fill="#263238"/>
<path opacity="0.8" d="M241.822 33.3077C241.844 33.3048 241.865 33.3078 241.884 33.3165C241.904 33.3252 241.92 33.3392 241.932 33.3569C241.944 33.3745 241.95 33.3952 241.951 33.4164C241.952 33.4377 241.946 33.4586 241.935 33.4769C241.336 34.4427 239.073 38.5737 244.36 38.6512C250 38.7358 252.82 34.2876 253.158 33.7166C253.169 33.6989 253.185 33.6848 253.203 33.676C253.222 33.6673 253.243 33.6642 253.264 33.6673L254.779 33.8153C254.811 33.8196 254.841 33.8302 254.869 33.8464C254.896 33.8626 254.92 33.8842 254.939 33.9098C254.958 33.9354 254.972 33.9645 254.98 33.9955C254.987 34.0265 254.989 34.0587 254.984 34.0902C254.194 37.6326 252.061 40.7306 249.034 42.7329C248.658 41.7366 248.004 40.8693 247.149 40.2344C246.294 39.5995 245.275 39.2237 244.212 39.1517C240.511 38.9121 237.579 41.9081 237.579 41.9081C237.579 41.9081 236.416 36.91 240.131 33.5897C240.167 33.555 240.214 33.5327 240.265 33.5263L241.822 33.3077Z" fill="black"/>
<path opacity="0.2" d="M257.127 42.1055C257.127 42.1055 256.754 57.9244 263.077 63.8389C263.211 57.9456 263.5 52.2637 264.043 47.9283C264.195 46.7598 264.263 45.5819 264.247 44.4036L261.209 42.1055H257.127Z" fill="black"/>
<path d="M260.58 54.7944C260.58 54.7944 251.959 35.8313 258.282 35.3731C264.606 34.9149 270.795 47.9493 270.795 47.9493L260.58 54.7944Z" fill="#263238"/>
<path d="M262.131 53.1023C262.131 53.1023 266.276 63.9373 267.066 70.5003C266.41 77.5337 265.232 84.5084 263.541 91.3667C263.541 91.3667 260.721 94.4685 260.15 96.8935C259.579 99.3185 258.74 100.235 261.56 101.271C264.38 102.307 266.495 101.384 267.552 100.002C268.609 98.6206 268.13 91.7051 268.13 91.7051C268.13 91.7051 273.657 75.1107 274.002 69.2385C274.348 63.3663 268.363 48.7246 268.363 48.7246L262.131 53.1023Z" fill="#CE7A63"/>
<path d="M259.523 53.7225L260.108 55.2241C260.147 55.3196 260.206 55.4055 260.282 55.4756C260.357 55.5458 260.447 55.5985 260.545 55.6301C260.643 55.6617 260.747 55.6714 260.849 55.6585C260.952 55.6456 261.05 55.6104 261.137 55.5554L271.472 48.654C271.616 48.5526 271.717 48.4007 271.755 48.2285C271.793 48.0562 271.765 47.876 271.676 47.7234L270.844 46.3136C270.795 46.2344 270.73 46.1658 270.654 46.1119C270.577 46.0579 270.491 46.0197 270.4 45.9993C270.309 45.979 270.215 45.977 270.123 45.9934C270.031 46.0098 269.943 46.0444 269.864 46.095L259.784 52.8766C259.65 52.9666 259.551 53.0996 259.504 53.2535C259.457 53.4074 259.463 53.5729 259.523 53.7225Z" fill="#263238"/>
<path opacity="0.8" d="M259.523 53.7225L260.108 55.2241C260.147 55.3196 260.206 55.4055 260.282 55.4756C260.357 55.5458 260.447 55.5985 260.545 55.6301C260.643 55.6617 260.747 55.6714 260.849 55.6585C260.952 55.6456 261.05 55.6104 261.137 55.5554L271.472 48.654C271.616 48.5526 271.717 48.4007 271.755 48.2285C271.793 48.0562 271.765 47.876 271.676 47.7234L270.844 46.3136C270.795 46.2344 270.73 46.1658 270.654 46.1119C270.577 46.0579 270.491 46.0197 270.4 45.9993C270.309 45.979 270.215 45.977 270.123 45.9934C270.031 46.0098 269.943 46.0444 269.864 46.095L259.784 52.8766C259.65 52.9666 259.551 53.0996 259.504 53.2535C259.457 53.4074 259.463 53.5729 259.523 53.7225Z" fill="black"/>
<path d="M277.838 204.179L265.664 205.392L264.635 201.374L278.057 200.034L277.838 204.179Z" fill="#678DD5"/>
<path opacity="0.3" d="M277.838 204.179L265.664 205.392L264.635 201.374L278.057 200.034L277.838 204.179Z" fill="black"/>
<path d="M244.149 203.375L232.144 202.86L231.58 198.765L245.066 199.343L244.149 203.375Z" fill="#678DD5"/>
<path opacity="0.3" d="M244.149 203.375L232.144 202.86L231.58 198.765L245.066 199.343L244.149 203.375Z" fill="black"/>
<path d="M208.514 48.1269C208.555 48.5055 208.515 48.8885 208.397 49.2505C208.279 49.6124 208.085 49.9451 207.828 50.2265C207.571 50.5078 207.258 50.7313 206.908 50.8822C206.559 51.0331 206.181 51.108 205.8 51.1018H203.988L198.8 56.7906L192.611 51.1018H183.862C183.052 51.087 182.276 50.7762 181.68 50.2281C181.084 49.68 180.709 48.9325 180.626 48.1269L178.709 26.189C178.668 25.8107 178.708 25.428 178.826 25.0664C178.945 24.7048 179.139 24.3725 179.395 24.0917C179.652 23.8109 179.966 23.5881 180.315 23.4379C180.665 23.2878 181.043 23.214 181.423 23.2212H203.361C204.169 23.2359 204.943 23.546 205.538 24.0928C206.133 24.6396 206.507 25.3853 206.59 26.189L208.514 48.1269Z" stroke="#678DD5" stroke-miterlimit="10"/>
<path d="M203.036 45.658C205.575 43.006 205.287 38.6102 202.393 35.8399C199.499 33.0695 195.095 32.9737 192.556 35.6257C190.017 38.2778 190.305 42.6735 193.199 45.4439C196.093 48.2142 200.497 48.3101 203.036 45.658Z" fill="#678DD5"/>
<path d="M196.092 45.661C198.631 43.0089 198.343 38.6131 195.449 35.8428C192.555 33.0724 188.151 32.9766 185.613 35.6287C183.074 38.2807 183.362 42.6765 186.256 45.4468C189.15 48.2172 193.554 48.313 196.092 45.661Z" fill="#678DD5"/>
<path d="M186.768 33.6901C186.967 35.5671 187.843 37.3072 189.233 38.5842C190.623 39.8613 192.431 40.5875 194.318 40.6267C195.208 40.643 196.091 40.4696 196.908 40.1181C197.725 39.7666 198.459 39.245 199.059 38.5881C199.659 37.9312 200.112 37.1541 200.389 36.3083C200.665 35.4626 200.759 34.5676 200.662 33.683C200.465 31.8048 199.59 30.0629 198.2 28.7845C196.81 27.506 195.001 26.7788 193.113 26.7393C192.222 26.723 191.339 26.8966 190.521 27.2485C189.703 27.6004 188.969 28.1226 188.369 28.7803C187.768 29.438 187.315 30.216 187.039 31.0626C186.763 31.9092 186.671 32.805 186.768 33.6901Z" fill="#678DD5"/>
<path opacity="0.3" d="M203.036 45.658C205.575 43.006 205.287 38.6102 202.393 35.8399C199.499 33.0695 195.095 32.9737 192.556 35.6257C190.017 38.2778 190.305 42.6735 193.199 45.4439C196.093 48.2142 200.497 48.3101 203.036 45.658Z" fill="#BEE882"/>
<path opacity="0.2" d="M196.092 45.661C198.631 43.0089 198.343 38.6131 195.449 35.8428C192.555 33.0724 188.151 32.9766 185.613 35.6287C183.074 38.2807 183.362 42.6765 186.256 45.4468C189.15 48.2172 193.554 48.313 196.092 45.661Z" fill="black"/>
<path opacity="0.6" d="M186.768 33.6901C186.967 35.5671 187.843 37.3072 189.233 38.5842C190.623 39.8613 192.431 40.5875 194.318 40.6267C195.208 40.643 196.091 40.4696 196.908 40.1181C197.725 39.7666 198.459 39.245 199.059 38.5881C199.659 37.9312 200.112 37.1541 200.389 36.3083C200.665 35.4626 200.759 34.5676 200.662 33.683C200.465 31.8048 199.59 30.0629 198.2 28.7845C196.81 27.506 195.001 26.7788 193.113 26.7393C192.222 26.723 191.339 26.8966 190.521 27.2485C189.703 27.6004 188.969 28.1226 188.369 28.7803C187.768 29.438 187.315 30.216 187.039 31.0626C186.763 31.9092 186.671 32.805 186.768 33.6901Z" fill="#BEE882"/>
<path d="M175.551 38.1801C175.583 38.4632 175.553 38.7496 175.465 39.0204C175.376 39.2911 175.231 39.5398 175.039 39.75C174.847 39.9601 174.612 40.1269 174.35 40.2391C174.089 40.3513 173.806 40.4064 173.521 40.4007H171.357L167.029 45.145L161.868 40.4007H153.825C153.219 40.3903 152.639 40.1587 152.192 39.7497C151.745 39.3407 151.464 38.7824 151.4 38.1801L149.68 18.4769C149.649 18.1935 149.678 17.9068 149.767 17.6357C149.855 17.3647 150 17.1155 150.192 16.9048C150.384 16.6941 150.619 16.5267 150.881 16.4136C151.142 16.3006 151.425 16.2446 151.71 16.2493H171.406C172.011 16.2631 172.591 16.4969 173.036 16.9069C173.481 17.317 173.761 17.8751 173.824 18.4769L175.551 38.1801Z" stroke="#678DD5" stroke-miterlimit="10"/>
<path d="M170.152 27.9373H167.516C167.298 26.7484 166.699 25.663 165.808 24.8461C164.917 24.0292 163.784 23.5255 162.581 23.4116L162.349 20.7751C162.337 20.6647 162.285 20.5624 162.203 20.4872C162.122 20.412 162.015 20.369 161.904 20.3662C161.852 20.366 161.801 20.3767 161.753 20.3976C161.705 20.4186 161.662 20.4493 161.627 20.4878C161.592 20.5263 161.565 20.5718 161.548 20.6213C161.532 20.6707 161.526 20.7231 161.531 20.7751L161.763 23.4116C160.627 23.4943 159.565 24.0097 158.796 24.8515C158.028 25.6934 157.611 26.7977 157.632 27.9373H154.996C154.944 27.937 154.893 27.9477 154.845 27.9687C154.798 27.9897 154.755 28.0205 154.721 28.0592C154.686 28.0978 154.66 28.1434 154.644 28.1929C154.628 28.2424 154.623 28.2946 154.629 28.3462C154.64 28.4572 154.691 28.5603 154.773 28.6358C154.855 28.7113 154.962 28.7538 155.073 28.7551H157.703C157.921 29.9435 158.521 31.0283 159.412 31.845C160.302 32.6617 161.435 33.1658 162.638 33.2808L162.87 35.9173C162.882 36.0277 162.934 36.13 163.015 36.2052C163.097 36.2804 163.203 36.3234 163.314 36.3262C163.367 36.3275 163.419 36.3176 163.467 36.297C163.516 36.2765 163.559 36.2458 163.594 36.207C163.63 36.1682 163.657 36.1223 163.673 36.0723C163.689 36.0223 163.694 35.9695 163.688 35.9173L163.455 33.2808C164.593 33.1997 165.656 32.6849 166.424 31.8427C167.193 31.0004 167.609 29.8951 167.586 28.7551H170.223C170.275 28.7564 170.327 28.7465 170.376 28.7259C170.424 28.7054 170.467 28.6747 170.503 28.6359C170.538 28.5971 170.565 28.5512 170.581 28.5012C170.597 28.4512 170.602 28.3984 170.596 28.3462C170.584 28.2358 170.533 28.1335 170.451 28.0583C170.369 27.9831 170.263 27.9401 170.152 27.9373ZM166.698 27.9373H165.768C165.608 27.2313 165.237 26.5906 164.705 26.1007C164.172 25.6108 163.502 25.2949 162.786 25.1951L162.701 24.2293C163.673 24.3483 164.582 24.7708 165.3 25.4365C166.017 26.1022 166.507 26.9774 166.698 27.9373ZM162.172 27.9373H160.255C160.292 27.4689 160.484 27.0262 160.8 26.679C161.117 26.3317 161.54 26.0999 162.003 26.0199L162.172 27.9373ZM162.243 28.7551L162.412 30.6725C161.919 30.5835 161.462 30.3559 161.093 30.0163C160.725 29.6767 160.461 29.2392 160.332 28.7551H162.243ZM163.061 28.7551H164.978C164.941 29.2235 164.749 29.6662 164.432 30.0134C164.116 30.3606 163.693 30.5925 163.23 30.6725L163.061 28.7551ZM162.99 27.9373L162.821 26.0199C163.318 26.1076 163.781 26.3341 164.155 26.6734C164.529 27.0127 164.8 27.4508 164.936 27.9373H162.99ZM161.848 24.2293L161.933 25.1951C161.253 25.2701 160.624 25.5897 160.162 26.0941C159.7 26.5986 159.438 27.2536 159.423 27.9373H158.457C158.452 27.0038 158.797 26.1022 159.425 25.4115C160.053 24.7207 160.918 24.2912 161.848 24.2082V24.2293ZM158.535 28.7551H159.501C159.661 29.4606 160.032 30.1008 160.564 30.5906C161.097 31.0804 161.766 31.3966 162.482 31.4973L162.567 32.4631C161.585 32.3519 160.665 31.9302 159.94 31.2594C159.214 30.5887 158.722 29.7039 158.535 28.7339V28.7551ZM163.385 32.4631L163.3 31.462C163.98 31.387 164.609 31.0675 165.071 30.563C165.533 30.0585 165.795 29.4035 165.81 28.7198H166.769C166.776 29.652 166.431 30.5526 165.804 31.2424C165.177 31.9321 164.313 32.3604 163.385 32.4419V32.4631Z" fill="#678DD5"/>
<path opacity="0.5" d="M170.152 27.9373H167.516C167.298 26.7484 166.699 25.663 165.808 24.8461C164.917 24.0292 163.784 23.5255 162.581 23.4116L162.349 20.7751C162.337 20.6647 162.285 20.5624 162.203 20.4872C162.122 20.412 162.015 20.369 161.904 20.3662C161.852 20.366 161.801 20.3767 161.753 20.3976C161.705 20.4186 161.662 20.4493 161.627 20.4878C161.592 20.5263 161.565 20.5718 161.548 20.6213C161.532 20.6707 161.526 20.7231 161.531 20.7751L161.763 23.4116C160.627 23.4943 159.565 24.0097 158.796 24.8515C158.028 25.6934 157.611 26.7977 157.632 27.9373H154.996C154.944 27.937 154.893 27.9477 154.845 27.9687C154.798 27.9897 154.755 28.0205 154.721 28.0592C154.686 28.0978 154.66 28.1434 154.644 28.1929C154.628 28.2424 154.623 28.2946 154.629 28.3462C154.64 28.4572 154.691 28.5603 154.773 28.6358C154.855 28.7113 154.962 28.7538 155.073 28.7551H157.703C157.921 29.9435 158.521 31.0283 159.412 31.845C160.302 32.6617 161.435 33.1658 162.638 33.2808L162.87 35.9173C162.882 36.0277 162.934 36.13 163.015 36.2052C163.097 36.2804 163.203 36.3234 163.314 36.3262C163.367 36.3275 163.419 36.3176 163.467 36.297C163.516 36.2765 163.559 36.2458 163.594 36.207C163.63 36.1682 163.657 36.1223 163.673 36.0723C163.689 36.0223 163.694 35.9695 163.688 35.9173L163.455 33.2808C164.593 33.1997 165.656 32.6849 166.424 31.8427C167.193 31.0004 167.609 29.8951 167.586 28.7551H170.223C170.275 28.7564 170.327 28.7465 170.376 28.7259C170.424 28.7054 170.467 28.6747 170.503 28.6359C170.538 28.5971 170.565 28.5512 170.581 28.5012C170.597 28.4512 170.602 28.3984 170.596 28.3462C170.584 28.2358 170.533 28.1335 170.451 28.0583C170.369 27.9831 170.263 27.9401 170.152 27.9373ZM166.698 27.9373H165.768C165.608 27.2313 165.237 26.5906 164.705 26.1007C164.172 25.6108 163.502 25.2949 162.786 25.1951L162.701 24.2293C163.673 24.3483 164.582 24.7708 165.3 25.4365C166.017 26.1022 166.507 26.9774 166.698 27.9373ZM162.172 27.9373H160.255C160.292 27.4689 160.484 27.0262 160.8 26.679C161.117 26.3317 161.54 26.0999 162.003 26.0199L162.172 27.9373ZM162.243 28.7551L162.412 30.6725C161.919 30.5835 161.462 30.3559 161.093 30.0163C160.725 29.6767 160.461 29.2392 160.332 28.7551H162.243ZM163.061 28.7551H164.978C164.941 29.2235 164.749 29.6662 164.432 30.0134C164.116 30.3606 163.693 30.5925 163.23 30.6725L163.061 28.7551ZM162.99 27.9373L162.821 26.0199C163.318 26.1076 163.781 26.3341 164.155 26.6734C164.529 27.0127 164.8 27.4508 164.936 27.9373H162.99ZM161.848 24.2293L161.933 25.1951C161.253 25.2701 160.624 25.5897 160.162 26.0941C159.7 26.5986 159.438 27.2536 159.423 27.9373H158.457C158.452 27.0038 158.797 26.1022 159.425 25.4115C160.053 24.7207 160.918 24.2912 161.848 24.2082V24.2293ZM158.535 28.7551H159.501C159.661 29.4606 160.032 30.1008 160.564 30.5906C161.097 31.0804 161.766 31.3966 162.482 31.4973L162.567 32.4631C161.585 32.3519 160.665 31.9302 159.94 31.2594C159.214 30.5887 158.722 29.7039 158.535 28.7339V28.7551ZM163.385 32.4631L163.3 31.462C163.98 31.387 164.609 31.0675 165.071 30.563C165.533 30.0585 165.795 29.4035 165.81 28.7198H166.769C166.776 29.652 166.431 30.5526 165.804 31.2424C165.177 31.9321 164.313 32.3604 163.385 32.4419V32.4631Z" fill="#678DD5"/>
<path d="M152.479 22.8475C152.35 22.8448 152.227 22.7953 152.132 22.7084C152.038 22.6215 151.978 22.503 151.964 22.3752L151.598 18.1455H155.827C155.958 18.1482 156.083 18.1984 156.179 18.2867C156.275 18.3749 156.335 18.4952 156.349 18.6249C156.355 18.6854 156.348 18.7465 156.329 18.8041C156.309 18.8618 156.278 18.9147 156.237 18.9593C156.195 19.004 156.145 19.0393 156.089 19.0631C156.033 19.0869 155.973 19.0985 155.912 19.0972H152.662L152.944 22.354C152.954 22.4187 152.949 22.4847 152.93 22.5472C152.91 22.6096 152.877 22.6668 152.832 22.7144C152.787 22.7619 152.732 22.7987 152.671 22.8217C152.61 22.8448 152.544 22.8536 152.479 22.8475Z" fill="#678DD5"/>
<path d="M167.226 18.6465C167.218 18.5858 167.223 18.5241 167.241 18.4655C167.259 18.407 167.29 18.3531 167.331 18.3075C167.372 18.2619 167.422 18.2258 167.478 18.2015C167.534 18.1773 167.595 18.1656 167.656 18.1671H171.886L172.26 22.3968C172.266 22.4573 172.259 22.5184 172.239 22.5761C172.22 22.6337 172.189 22.6866 172.147 22.7313C172.106 22.7759 172.056 22.8113 172 22.835C171.944 22.8588 171.883 22.8704 171.823 22.8691C171.694 22.8664 171.571 22.817 171.476 22.73C171.382 22.6431 171.322 22.5246 171.308 22.3968L171.019 19.14H167.741C167.609 19.1367 167.483 19.0843 167.388 18.993C167.293 18.9017 167.235 18.7781 167.226 18.6465Z" fill="#678DD5"/>
<path d="M172.753 33.8026C172.883 33.8055 173.007 33.8559 173.102 33.9443C173.197 34.0327 173.256 34.1528 173.268 34.282L173.642 38.5116H169.412C169.283 38.5089 169.16 38.4595 169.066 38.3725C168.971 38.2856 168.911 38.1671 168.897 38.0393C168.89 37.9782 168.896 37.9164 168.915 37.8578C168.934 37.7993 168.965 37.7455 169.007 37.7001C169.048 37.6547 169.099 37.6187 169.155 37.5945C169.212 37.5703 169.273 37.5585 169.334 37.5599H172.584L172.295 34.3101C172.285 34.2453 172.289 34.1789 172.307 34.1158C172.326 34.0528 172.358 33.9947 172.402 33.9459C172.446 33.8972 172.5 33.859 172.561 33.8341C172.622 33.8093 172.688 33.7985 172.753 33.8026Z" fill="#678DD5"/>
<path d="M158.013 38.0111C158.019 38.0717 158.012 38.1328 157.992 38.1904C157.973 38.2481 157.942 38.301 157.9 38.3456C157.859 38.3902 157.809 38.4256 157.753 38.4494C157.697 38.4731 157.636 38.4848 157.576 38.4835H153.346L152.979 34.2538C152.972 34.1933 152.978 34.132 152.997 34.074C153.015 34.016 153.046 33.9626 153.086 33.9173C153.127 33.872 153.177 33.8358 153.233 33.8112C153.288 33.7866 153.349 33.774 153.409 33.7744C153.54 33.7771 153.665 33.8273 153.761 33.9156C153.857 34.0038 153.917 34.1241 153.931 34.2538L154.213 37.5036H157.463C157.532 37.5008 157.602 37.5116 157.667 37.5356C157.732 37.5596 157.792 37.5962 157.843 37.6434C157.894 37.6905 157.935 37.7472 157.964 37.8104C157.994 37.8735 158.01 37.9417 158.013 38.0111Z" fill="#678DD5"/>
<g opacity="0.5">
<path d="M152.479 22.8475C152.35 22.8448 152.227 22.7953 152.132 22.7084C152.038 22.6215 151.978 22.503 151.964 22.3752L151.598 18.1455H155.827C155.958 18.1482 156.083 18.1984 156.179 18.2867C156.275 18.3749 156.335 18.4952 156.349 18.6249C156.355 18.6854 156.348 18.7465 156.329 18.8041C156.309 18.8618 156.278 18.9147 156.237 18.9593C156.195 19.004 156.145 19.0393 156.089 19.0631C156.033 19.0869 155.973 19.0985 155.912 19.0972H152.662L152.944 22.354C152.954 22.4187 152.949 22.4847 152.93 22.5472C152.91 22.6096 152.877 22.6668 152.832 22.7144C152.787 22.7619 152.732 22.7987 152.671 22.8217C152.61 22.8448 152.544 22.8536 152.479 22.8475Z" fill="#678DD5"/>
</g>
<g opacity="0.5">
<path d="M167.226 18.6465C167.218 18.5858 167.223 18.5241 167.241 18.4655C167.259 18.407 167.29 18.3531 167.331 18.3075C167.372 18.2619 167.422 18.2258 167.478 18.2015C167.534 18.1773 167.595 18.1656 167.656 18.1671H171.886L172.26 22.3968C172.266 22.4573 172.259 22.5184 172.239 22.5761C172.22 22.6337 172.189 22.6866 172.147 22.7313C172.106 22.7759 172.056 22.8113 172 22.835C171.944 22.8588 171.883 22.8704 171.823 22.8691C171.694 22.8664 171.571 22.817 171.476 22.73C171.382 22.6431 171.322 22.5246 171.308 22.3968L171.019 19.14H167.741C167.609 19.1367 167.483 19.0843 167.388 18.993C167.293 18.9017 167.235 18.7781 167.226 18.6465Z" fill="#678DD5"/>
</g>
<g opacity="0.5">
<path d="M172.753 33.8026C172.883 33.8055 173.007 33.8559 173.102 33.9443C173.197 34.0327 173.256 34.1528 173.268 34.282L173.642 38.5116H169.412C169.283 38.5089 169.16 38.4595 169.066 38.3725C168.971 38.2856 168.911 38.1671 168.897 38.0393C168.89 37.9782 168.896 37.9164 168.915 37.8578C168.934 37.7993 168.965 37.7455 169.007 37.7001C169.048 37.6547 169.099 37.6187 169.155 37.5945C169.212 37.5703 169.273 37.5585 169.334 37.5599H172.584L172.295 34.3101C172.285 34.2453 172.289 34.1789 172.307 34.1158C172.326 34.0528 172.358 33.9947 172.402 33.9459C172.446 33.8972 172.5 33.859 172.561 33.8341C172.622 33.8093 172.688 33.7985 172.753 33.8026Z" fill="#678DD5"/>
</g>
<g opacity="0.5">
<path d="M158.013 38.0111C158.019 38.0717 158.012 38.1328 157.992 38.1904C157.973 38.2481 157.942 38.301 157.9 38.3456C157.859 38.3902 157.809 38.4256 157.753 38.4494C157.697 38.4731 157.636 38.4848 157.576 38.4835H153.346L152.979 34.2538C152.972 34.1933 152.978 34.132 152.997 34.074C153.015 34.016 153.046 33.9626 153.086 33.9173C153.127 33.872 153.177 33.8358 153.233 33.8112C153.288 33.7866 153.349 33.774 153.409 33.7744C153.54 33.7771 153.665 33.8273 153.761 33.9156C153.857 34.0038 153.917 34.1241 153.931 34.2538L154.213 37.5036H157.463C157.532 37.5008 157.602 37.5116 157.667 37.5356C157.732 37.5596 157.792 37.5962 157.843 37.6434C157.894 37.6905 157.935 37.7472 157.964 37.8104C157.994 37.8735 158.01 37.9417 158.013 38.0111Z" fill="#678DD5"/>
</g>
<path d="M230.988 134.341H115.123V222.438H230.988V134.341Z" fill="#678DD5"/>
<path opacity="0.8" d="M230.988 134.341H115.123V222.438H230.988V134.341Z" fill="white"/>
<path d="M122.672 134.341H75.1797V222.438H122.672V134.341Z" fill="#678DD5"/>
<path opacity="0.7" d="M122.672 134.341H75.1797V222.438H122.672V134.341Z" fill="white"/>
<path d="M222.161 144.9H131.809V165.795H222.161V144.9Z" fill="#678DD5"/>
<path opacity="0.7" d="M222.161 144.9H131.809V165.795H222.161V144.9Z" fill="white"/>
<path d="M222.161 168.728H131.809V189.622H222.161V168.728Z" fill="#678DD5"/>
<path opacity="0.7" d="M222.161 168.728H131.809V189.622H222.161V168.728Z" fill="white"/>
<path d="M222.161 192.548H131.809V213.442H222.161V192.548Z" fill="#678DD5"/>
<path opacity="0.7" d="M222.161 192.548H131.809V213.442H222.161V192.548Z" fill="white"/>
<path d="M182.587 149.765H171.378C170.551 149.763 169.745 149.505 169.072 149.025C168.399 148.545 167.891 147.867 167.621 147.086L166.859 144.9H187.105L186.344 147.086C186.074 147.868 185.567 148.546 184.894 149.026C184.22 149.506 183.414 149.764 182.587 149.765Z" fill="#678DD5"/>
<path opacity="0.5" d="M182.587 149.765H171.378C170.551 149.763 169.745 149.505 169.072 149.025C168.399 148.545 167.891 147.867 167.621 147.086L166.859 144.9H187.105L186.344 147.086C186.074 147.868 185.567 148.546 184.894 149.026C184.22 149.506 183.414 149.764 182.587 149.765Z" fill="white"/>
<path d="M182.917 144.9L182.156 147.086C181.885 147.867 181.378 148.545 180.705 149.025C180.031 149.505 179.225 149.763 178.398 149.765H182.586C183.413 149.764 184.219 149.506 184.893 149.026C185.566 148.546 186.073 147.868 186.343 147.086L187.105 144.9H182.917Z" fill="#678DD5"/>
<path opacity="0.6" d="M182.917 144.9L182.156 147.086C181.885 147.867 181.378 148.545 180.705 149.025C180.031 149.505 179.225 149.763 178.398 149.765H182.586C183.413 149.764 184.219 149.506 184.893 149.026C185.566 148.546 186.073 147.868 186.343 147.086L187.105 144.9H182.917Z" fill="white"/>
<path d="M182.587 173.592H171.378C170.551 173.59 169.745 173.332 169.072 172.852C168.399 172.372 167.891 171.694 167.621 170.913L166.859 168.728H187.105L186.344 170.913C186.074 171.695 185.567 172.373 184.894 172.853C184.22 173.333 183.414 173.591 182.587 173.592Z" fill="#678DD5"/>
<path opacity="0.5" d="M182.587 173.592H171.378C170.551 173.59 169.745 173.332 169.072 172.852C168.399 172.372 167.891 171.694 167.621 170.913L166.859 168.728H187.105L186.344 170.913C186.074 171.695 185.567 172.373 184.894 172.853C184.22 173.333 183.414 173.591 182.587 173.592Z" fill="white"/>
<path d="M182.917 168.728L182.156 170.913C181.885 171.694 181.378 172.372 180.705 172.852C180.031 173.332 179.225 173.59 178.398 173.592H182.586C183.413 173.591 184.219 173.333 184.893 172.853C185.566 172.373 186.073 171.695 186.343 170.913L187.105 168.728H182.917Z" fill="#678DD5"/>
<path opacity="0.6" d="M182.917 168.728L182.156 170.913C181.885 171.694 181.378 172.372 180.705 172.852C180.031 173.332 179.225 173.59 178.398 173.592H182.586C183.413 173.591 184.219 173.333 184.893 172.853C185.566 172.373 186.073 171.695 186.343 170.913L187.105 168.728H182.917Z" fill="white"/>
<path d="M182.587 197.419H171.378C170.551 197.418 169.745 197.159 169.072 196.679C168.399 196.199 167.891 195.522 167.621 194.74L166.895 192.548H187.141L186.379 194.74C186.107 195.528 185.595 196.21 184.915 196.691C184.234 197.171 183.42 197.426 182.587 197.419Z" fill="#678DD5"/>
<path opacity="0.5" d="M182.587 197.419H171.378C170.551 197.418 169.745 197.159 169.072 196.679C168.399 196.199 167.891 195.522 167.621 194.74L166.895 192.548H187.141L186.379 194.74C186.107 195.528 185.595 196.21 184.915 196.691C184.234 197.171 183.42 197.426 182.587 197.419Z" fill="white"/>
<path d="M182.917 192.548L182.156 194.74C181.885 195.522 181.378 196.199 180.705 196.679C180.031 197.159 179.225 197.418 178.398 197.419H182.586C183.413 197.419 184.219 197.161 184.893 196.68C185.566 196.2 186.073 195.522 186.343 194.74L187.105 192.548H182.917Z" fill="#678DD5"/>
<path opacity="0.6" d="M182.917 192.548L182.156 194.74C181.885 195.522 181.378 196.199 180.705 196.679C180.031 197.159 179.225 197.418 178.398 197.419H182.586C183.413 197.419 184.219 197.161 184.893 196.68C185.566 196.2 186.073 195.522 186.343 194.74L187.105 192.548H182.917Z" fill="white"/>
<path d="M233.631 134.341H124.83V139.106H233.631V134.341Z" fill="#678DD5"/>
<path opacity="0.9" d="M233.631 134.341H124.83V139.106H233.631V134.341Z" fill="white"/>
<path d="M126.522 134.341H72.5371V139.106H126.522V134.341Z" fill="#678DD5"/>
<path opacity="0.8" d="M126.522 134.341H72.5371V139.106H126.522V134.341Z" fill="white"/>
<path opacity="0.1" d="M171.012 134.221H216.678V151.724C216.678 152.335 216.558 152.94 216.324 153.505C216.09 154.069 215.747 154.582 215.315 155.014C214.883 155.446 214.37 155.789 213.806 156.023C213.241 156.257 212.636 156.377 212.025 156.377H177.737C176.854 156.377 175.979 156.203 175.163 155.865C174.347 155.527 173.606 155.032 172.981 154.407C172.357 153.783 171.862 153.041 171.524 152.226C171.186 151.41 171.012 150.535 171.012 149.652V134.221Z" fill="black"/>
<path d="M174.275 89.654H174.881C175.047 89.6597 175.212 89.6276 175.364 89.5602C175.515 89.4927 175.649 89.3916 175.756 89.2646C175.863 89.1375 175.939 88.9879 175.979 88.8269C176.019 88.666 176.022 88.498 175.988 88.3357L170.708 54.9989C170.643 54.6368 170.456 54.3081 170.177 54.068C169.899 53.8279 169.546 53.6911 169.178 53.6807H87.5527L93.2487 89.6328L174.275 89.654Z" fill="#263238"/>
<path opacity="0.5" d="M174.275 89.654H174.881C175.047 89.6597 175.212 89.6276 175.364 89.5602C175.515 89.4927 175.649 89.3916 175.756 89.2646C175.863 89.1375 175.939 88.9879 175.979 88.8269C176.019 88.666 176.022 88.498 175.988 88.3357L170.708 54.9989C170.643 54.6368 170.456 54.3081 170.177 54.068C169.899 53.8279 169.546 53.6911 169.178 53.6807H87.5527L93.2487 89.6328L174.275 89.654Z" fill="white"/>
<path d="M93.5803 89.6537C93.1283 89.6399 92.6948 89.4714 92.3522 89.1762C92.0096 88.8811 91.7787 88.4773 91.6981 88.0323L86.5168 55.3017C86.4751 55.1023 86.4792 54.8959 86.5288 54.6982C86.5784 54.5006 86.6723 54.3168 86.8033 54.1606C86.9343 54.0045 87.099 53.8802 87.2851 53.797C87.4711 53.7138 87.6736 53.6739 87.8773 53.6804C88.3289 53.6954 88.7618 53.8644 89.1042 54.1593C89.4465 54.4542 89.6778 54.8573 89.7595 55.3017L94.9409 88.0323C94.9812 88.2316 94.9761 88.4375 94.9259 88.6346C94.8757 88.8316 94.7818 89.0149 94.6511 89.1707C94.5204 89.3264 94.3562 89.4507 94.1708 89.5344C93.9855 89.618 93.7836 89.6588 93.5803 89.6537Z" fill="#263238"/>
<path opacity="0.2" d="M93.5803 89.6537C93.1283 89.6399 92.6948 89.4714 92.3522 89.1762C92.0096 88.8811 91.7787 88.4773 91.6981 88.0323L86.5168 55.3017C86.4751 55.1023 86.4792 54.8959 86.5288 54.6982C86.5784 54.5006 86.6723 54.3168 86.8033 54.1606C86.9343 54.0045 87.099 53.8802 87.2851 53.797C87.4711 53.7138 87.6736 53.6739 87.8773 53.6804C88.3289 53.6954 88.7618 53.8644 89.1042 54.1593C89.4465 54.4542 89.6778 54.8573 89.7595 55.3017L94.9409 88.0323C94.9812 88.2316 94.9761 88.4375 94.9259 88.6346C94.8757 88.8316 94.7818 89.0149 94.6511 89.1707C94.5204 89.3264 94.3562 89.4507 94.1708 89.5344C93.9855 89.618 93.7836 89.6588 93.5803 89.6537Z" fill="white"/>
<path d="M206.42 134.284H101.531L107.523 81.2578H205.229C206.129 81.262 207.019 81.4558 207.839 81.8266C208.66 82.1973 209.394 82.7367 209.992 83.4097C210.591 84.0826 211.041 84.874 211.313 85.7324C211.585 86.5908 211.674 87.497 211.573 88.3919L206.42 134.284Z" fill="#678DD5"/>
<path opacity="0.2" d="M205.228 81.2578H109.229V87.2216H211.622C211.508 85.6033 210.785 84.0883 209.598 82.9817C208.412 81.8751 206.85 81.2591 205.228 81.2578Z" fill="white"/>
<path d="M112.895 134.284H84.1758V86.6295C84.1758 85.2048 84.7417 83.8385 85.7491 82.8311C86.7565 81.8238 88.1228 81.2578 89.5475 81.2578H111.704C112.604 81.262 113.494 81.4558 114.315 81.8266C115.135 82.1973 115.869 82.7367 116.467 83.4097C117.066 84.0826 117.516 84.874 117.788 85.7324C118.061 86.5908 118.149 87.497 118.048 88.3919L112.895 134.284Z" fill="#678DD5"/>
<path opacity="0.4" d="M112.895 134.284H84.1758V86.6295C84.1758 85.2048 84.7417 83.8385 85.7491 82.8311C86.7565 81.8238 88.1228 81.2578 89.5475 81.2578H111.704C112.604 81.262 113.494 81.4558 114.315 81.8266C115.135 82.1973 115.869 82.7367 116.467 83.4097C117.066 84.0826 117.516 84.874 117.788 85.7324C118.061 86.5908 118.149 87.497 118.048 88.3919L112.895 134.284Z" fill="black"/>
<path d="M199.787 132.437L201.683 115.659H122.885L120.988 132.437H199.787Z" fill="#263238"/>
<path d="M152.971 129.737H232.679C232.992 129.742 233.292 129.87 233.513 130.092C233.734 130.315 233.859 130.614 233.863 130.928V131.217C233.863 131.537 233.736 131.843 233.51 132.07C233.284 132.296 232.977 132.423 232.658 132.423H152.971V129.723V129.737Z" fill="#263238"/>
<path opacity="0.1" d="M152.971 129.737H232.679C232.992 129.742 233.292 129.87 233.513 130.092C233.734 130.315 233.859 130.614 233.863 130.928V131.217C233.863 131.537 233.736 131.843 233.51 132.07C233.284 132.296 232.977 132.423 232.658 132.423H152.971V129.723V129.737Z" fill="white"/>
<path d="M200.09 129.737H221.626C221.626 128.228 221.027 126.781 219.96 125.714C218.893 124.647 217.446 124.048 215.937 124.048H200.731L200.09 129.737Z" fill="#263238"/>
<path opacity="0.3" d="M200.09 129.737H221.626C221.626 128.228 221.027 126.781 219.96 125.714C218.893 124.647 217.446 124.048 215.937 124.048H200.731L200.09 129.737Z" fill="white"/>
<path opacity="0.1" d="M106.318 81.2581H155.283L151.963 53.6807H102.99L106.318 81.2581Z" fill="black"/>
<path d="M187.443 129.73C188.78 129.759 190.108 129.499 191.334 128.966C192.561 128.434 193.658 127.642 194.55 126.645C195.443 125.649 196.108 124.471 196.502 123.193C196.896 121.915 197.009 120.567 196.833 119.241C196.655 117.915 196.767 116.567 197.16 115.289C197.553 114.011 198.218 112.833 199.11 111.836C200.001 110.84 201.098 110.048 202.325 109.515C203.551 108.983 204.879 108.722 206.216 108.751H161.325C159.987 108.722 158.66 108.983 157.433 109.516C156.206 110.048 155.109 110.84 154.217 111.836C153.325 112.833 152.659 114.011 152.265 115.289C151.871 116.567 151.759 117.915 151.935 119.241C152.111 120.567 151.998 121.915 151.604 123.193C151.21 124.471 150.545 125.649 149.653 126.645C148.761 127.642 147.663 128.434 146.437 128.966C145.21 129.499 143.882 129.759 142.545 129.73H187.443Z" fill="#678DD5"/>
<path opacity="0.7" d="M187.443 129.73C188.78 129.759 190.108 129.499 191.334 128.966C192.561 128.434 193.658 127.642 194.55 126.645C195.443 125.649 196.108 124.471 196.502 123.193C196.896 121.915 197.009 120.567 196.833 119.241C196.655 117.915 196.767 116.567 197.16 115.289C197.553 114.011 198.218 112.833 199.11 111.836C200.001 110.84 201.098 110.048 202.325 109.515C203.551 108.983 204.879 108.722 206.216 108.751H161.325C159.987 108.722 158.66 108.983 157.433 109.516C156.206 110.048 155.109 110.84 154.217 111.836C153.325 112.833 152.659 114.011 152.265 115.289C151.871 116.567 151.759 117.915 151.935 119.241C152.111 120.567 151.998 121.915 151.604 123.193C151.21 124.471 150.545 125.649 149.653 126.645C148.761 127.642 147.663 128.434 146.437 128.966C145.21 129.499 143.882 129.759 142.545 129.73H187.443Z" fill="white"/>
<path d="M227.688 148.912C225.838 148.871 224.064 148.166 222.692 146.924C221.319 145.682 220.44 143.988 220.215 142.151L217.811 119.241C217.463 116.39 216.099 113.76 213.969 111.834C211.839 109.907 209.086 108.813 206.215 108.751H161.324C164.195 108.813 166.946 109.908 169.075 111.834C171.204 113.761 172.567 116.391 172.914 119.241L175.324 142.151C175.547 143.989 176.425 145.685 177.798 146.927C179.171 148.169 180.946 148.874 182.797 148.912H227.688Z" fill="#678DD5"/>
<path opacity="0.9" d="M227.688 148.912C225.838 148.871 224.064 148.166 222.692 146.924C221.319 145.682 220.44 143.988 220.215 142.151L217.811 119.241C217.463 116.39 216.099 113.76 213.969 111.834C211.839 109.907 209.086 108.813 206.215 108.751H161.324C164.195 108.813 166.946 109.908 169.075 111.834C171.204 113.761 172.567 116.391 172.914 119.241L175.324 142.151C175.547 143.989 176.425 145.685 177.798 146.927C179.171 148.169 180.946 148.874 182.797 148.912H227.688Z" fill="white"/>
<path d="M227.689 148.912C228.551 148.931 229.406 148.763 230.197 148.419C230.987 148.076 231.694 147.566 232.269 146.924C232.844 146.281 233.272 145.522 233.526 144.698C233.779 143.875 233.852 143.006 233.737 142.151H188.839C188.954 143.006 188.881 143.875 188.628 144.698C188.375 145.522 187.946 146.281 187.371 146.924C186.796 147.566 186.089 148.076 185.299 148.419C184.508 148.763 183.653 148.931 182.791 148.912H227.689Z" fill="#678DD5"/>
<path opacity="0.6" d="M227.689 148.912C228.551 148.931 229.406 148.763 230.197 148.419C230.987 148.076 231.694 147.566 232.269 146.924C232.844 146.281 233.272 145.522 233.526 144.698C233.779 143.875 233.852 143.006 233.737 142.151H188.839C188.954 143.006 188.881 143.875 188.628 144.698C188.375 145.522 187.946 146.281 187.371 146.924C186.796 147.566 186.089 148.076 185.299 148.419C184.508 148.763 183.653 148.931 182.791 148.912H227.689Z" fill="white"/>
<path d="M155.565 129.737H149.496C149.496 128.989 149.348 128.249 149.062 127.558C148.776 126.867 148.356 126.24 147.827 125.712C147.298 125.183 146.67 124.764 145.979 124.479C145.288 124.193 144.548 124.047 143.8 124.048H121.947L121.305 129.737L121.002 132.437H155.58C155.851 132.437 156.111 132.329 156.302 132.137C156.494 131.946 156.602 131.686 156.602 131.415V130.766C156.603 130.63 156.576 130.495 156.525 130.369C156.473 130.244 156.396 130.129 156.3 130.034C156.203 129.938 156.089 129.862 155.963 129.811C155.836 129.76 155.701 129.735 155.565 129.737Z" fill="#263238"/>
<path opacity="0.3" d="M155.565 129.737H149.496C149.496 128.989 149.348 128.249 149.062 127.558C148.776 126.867 148.356 126.24 147.827 125.712C147.298 125.183 146.67 124.764 145.979 124.479C145.288 124.193 144.548 124.047 143.8 124.048H121.947L121.305 129.737L121.002 132.437H155.58C155.851 132.437 156.111 132.329 156.302 132.137C156.494 131.946 156.602 131.686 156.602 131.415V130.766C156.603 130.63 156.576 130.495 156.525 130.369C156.473 130.244 156.396 130.129 156.3 130.034C156.203 129.938 156.089 129.862 155.963 129.811C155.836 129.76 155.701 129.735 155.565 129.737Z" fill="white"/>
<path d="M108.376 106.671H76.1738V134.284H108.376V106.671Z" fill="#678DD5"/>
<path d="M80.8899 106.671H76.1738V134.284H80.8899V106.671Z" fill="#678DD5"/>
<path opacity="0.2" d="M80.8899 106.671H76.1738V134.284H80.8899V106.671Z" fill="white"/>
<path d="M80.8899 124.689H76.1738V134.291H80.8899V124.689Z" fill="#263238"/>
<path d="M108.377 106.671H95.0391V134.284H108.377V106.671Z" fill="#678DD5"/>
<path opacity="0.7" d="M108.377 106.671H95.0391V134.284H108.377V106.671Z" fill="white"/>
<path d="M108.377 118.888H95.0391V134.284H108.377V118.888Z" fill="#678DD5"/>
<path d="M95.0383 106.671H90.3223V134.284H95.0383V106.671Z" fill="#678DD5"/>
<path opacity="0.5" d="M95.0383 106.671H90.3223V134.284H95.0383V106.671Z" fill="white"/>
<path d="M95.0383 118.888H90.3223V134.284H95.0383V118.888Z" fill="#678DD5"/>
<path opacity="0.2" d="M95.0383 118.888H90.3223V134.284H95.0383V118.888Z" fill="black"/>
<path d="M90.3235 106.671H85.6074V134.284H90.3235V106.671Z" fill="#678DD5"/>
<path opacity="0.4" d="M90.3235 106.671H85.6074V134.284H90.3235V106.671Z" fill="white"/>
<path d="M90.3235 122.286H85.6074V134.284H90.3235V122.286Z" fill="#678DD5"/>
<path opacity="0.4" d="M90.3235 122.286H85.6074V134.284H90.3235V122.286Z" fill="black"/>
<path d="M85.6067 106.671H80.8906V134.284H85.6067V106.671Z" fill="#678DD5"/>
<path opacity="0.3" d="M85.6067 106.671H80.8906V134.284H85.6067V106.671Z" fill="white"/>
<path d="M85.6067 120.481H80.8906V134.291H85.6067V120.481Z" fill="#678DD5"/>
<path opacity="0.6" d="M85.6067 120.481H80.8906V134.291H85.6067V120.481Z" fill="black"/>
<path d="M93.9313 131.521C93.9087 131.807 93.779 132.075 93.568 132.27C93.3569 132.465 93.0801 132.573 92.7928 132.573C92.5054 132.573 92.2286 132.465 92.0176 132.27C91.8066 132.075 91.6769 131.807 91.6543 131.521C91.6543 130.893 92.7893 129.483 92.7893 129.483C92.7893 129.483 93.9313 130.929 93.9313 131.521Z" fill="white"/>
<path d="M93.4811 131.633C93.4811 131.73 93.4425 131.824 93.3737 131.892C93.305 131.961 93.2117 132 93.1145 132C92.9101 132 93.037 131.838 93.037 131.633C93.037 131.429 92.9101 131.267 93.1145 131.267C93.2117 131.267 93.305 131.305 93.3737 131.374C93.4425 131.443 93.4811 131.536 93.4811 131.633Z" fill="#678DD5"/>
<path d="M89.0961 131.521C89.0961 131.822 88.9765 132.11 88.7637 132.323C88.5508 132.536 88.2621 132.656 87.9611 132.656C87.6601 132.656 87.3714 132.536 87.1586 132.323C86.9457 132.11 86.8262 131.822 86.8262 131.521C86.8262 130.893 87.9611 129.483 87.9611 129.483C87.9611 129.483 89.0961 130.929 89.0961 131.521Z" fill="white"/>
<path d="M88.6452 131.633C88.6452 131.681 88.6357 131.729 88.6172 131.773C88.5988 131.818 88.5718 131.858 88.5378 131.892C88.5037 131.926 88.4633 131.953 88.4189 131.972C88.3744 131.99 88.3267 132 88.2786 132C88.0741 132 88.201 131.838 88.201 131.633C88.201 131.429 88.0741 131.267 88.2786 131.267C88.3267 131.267 88.3744 131.276 88.4189 131.295C88.4633 131.313 88.5037 131.34 88.5378 131.374C88.5718 131.408 88.5988 131.448 88.6172 131.493C88.6357 131.537 88.6452 131.585 88.6452 131.633Z" fill="#678DD5"/>
<path d="M83.9574 131.521C83.9574 131.822 83.8378 132.11 83.625 132.323C83.4122 132.536 83.1235 132.656 82.8225 132.656C82.5215 132.656 82.2328 132.536 82.0199 132.323C81.8071 132.11 81.6875 131.822 81.6875 131.521C81.6875 130.893 82.8225 129.483 82.8225 129.483C82.8225 129.483 83.9574 130.929 83.9574 131.521Z" fill="white"/>
<path d="M83.5065 131.633C83.5065 131.73 83.4679 131.824 83.3991 131.892C83.3304 131.961 83.2371 132 83.1399 132C82.9355 132 83.0624 131.838 83.0624 131.633C83.0624 131.429 82.9355 131.267 83.1399 131.267C83.2371 131.267 83.3304 131.305 83.3991 131.374C83.4679 131.443 83.5065 131.536 83.5065 131.633Z" fill="#678DD5"/>
<path d="M79.6715 131.521C79.649 131.807 79.5192 132.075 79.3082 132.27C79.0972 132.465 78.8204 132.573 78.533 132.573C78.2457 132.573 77.9689 132.465 77.7578 132.27C77.5468 132.075 77.4171 131.807 77.3945 131.521C77.3945 130.893 78.5365 129.483 78.5365 129.483C78.5365 129.483 79.6715 130.929 79.6715 131.521Z" fill="white"/>
<path d="M79.2194 131.633C79.2194 131.73 79.1807 131.824 79.112 131.892C79.0433 131.961 78.95 132 78.8528 132C78.6484 132 78.7753 131.838 78.7753 131.633C78.7753 131.429 78.6484 131.267 78.8528 131.267C78.95 131.267 79.0433 131.305 79.112 131.374C79.1807 131.443 79.2194 131.536 79.2194 131.633Z" fill="#678DD5"/>
<path d="M159.746 81.2581H110.773L104.873 44.0088H153.846L159.746 81.2581Z" fill="#678DD5"/>
<path opacity="0.9" d="M159.746 81.2581H110.773L104.873 44.0088H153.846L159.746 81.2581Z" fill="white"/>
<path d="M130.047 85.1066H200.027C199.528 83.9645 198.707 82.9928 197.664 82.3104C196.621 81.628 195.401 81.2646 194.155 81.2646H124.168C125.415 81.265 126.635 81.6285 127.679 82.3107C128.723 82.993 129.546 83.9645 130.047 85.1066Z" fill="#678DD5"/>
<path opacity="0.5" d="M130.047 85.1066H200.027C199.528 83.9645 198.707 82.9928 197.664 82.3104C196.621 81.628 195.401 81.2646 194.155 81.2646H124.168C125.415 81.265 126.635 81.6285 127.679 82.3107C128.723 82.993 129.546 83.9645 130.047 85.1066Z" fill="white"/>
<path d="M207.682 124.992C203.305 124.118 199.554 122.758 200.09 120.763C200.626 118.768 206.935 124.717 207.696 120.763C208.458 116.808 198.039 117.654 202.106 114.757C204.355 113.156 204.341 110.654 203.876 108.736H197.686C197.355 110.322 197.912 112.057 196.77 112.261C195.628 112.465 195.092 110.499 194.345 108.736H189.932C190.517 111.479 194.697 115.081 192.385 116.667C189.34 118.782 183.263 106.481 179.872 111.852C176.481 117.224 190.743 119.769 189.319 122.744C187.895 125.718 178.173 118.944 178.878 124.992C179.583 131.041 191.455 128.369 191.455 128.369L188.748 132.93L190.362 134.213L191.772 130.279C193.344 126.487 194.429 129.426 195.691 131.238C199.752 137.054 209.642 133.642 201.521 129.638C193.4 125.634 196.453 125.303 203.58 128.369C210.707 131.436 212.06 125.866 207.682 124.992Z" fill="#678DD5"/>
<path opacity="0.8" d="M207.682 124.992C203.305 124.118 199.554 122.758 200.09 120.763C200.626 118.768 206.935 124.717 207.696 120.763C208.458 116.808 198.039 117.654 202.106 114.757C204.355 113.156 204.341 110.654 203.876 108.736H197.686C197.355 110.322 197.912 112.057 196.77 112.261C195.628 112.465 195.092 110.499 194.345 108.736H189.932C190.517 111.479 194.697 115.081 192.385 116.667C189.34 118.782 183.263 106.481 179.872 111.852C176.481 117.224 190.743 119.769 189.319 122.744C187.895 125.718 178.173 118.944 178.878 124.992C179.583 131.041 191.455 128.369 191.455 128.369L188.748 132.93L190.362 134.213L191.772 130.279C193.344 126.487 194.429 129.426 195.691 131.238C199.752 137.054 209.642 133.642 201.521 129.638C193.4 125.634 196.453 125.303 203.58 128.369C210.707 131.436 212.06 125.866 207.682 124.992Z" fill="#67932A"/>
<path d="M33.6595 223.325H20.7096C19.4987 223.323 18.3379 222.841 17.4816 221.985C16.6253 221.129 16.1435 219.968 16.1416 218.757V164.385H38.2346V218.757C38.2327 219.969 37.7499 221.131 36.8921 221.988C36.0343 222.844 34.8716 223.325 33.6595 223.325ZM18.9614 167.205V218.757C18.9632 219.22 19.148 219.664 19.4755 219.991C19.8029 220.319 20.2465 220.504 20.7096 220.505H33.6595C34.1226 220.504 34.5662 220.319 34.8936 219.991C35.2211 219.664 35.4059 219.22 35.4077 218.757V167.205H18.9614Z" fill="#678DD5"/>
<g opacity="0.3">
<path d="M33.6595 223.325H20.7096C19.4987 223.323 18.3379 222.841 17.4816 221.985C16.6253 221.129 16.1435 219.968 16.1416 218.757V164.385H38.2346V218.757C38.2327 219.969 37.7499 221.131 36.8921 221.988C36.0343 222.844 34.8716 223.325 33.6595 223.325ZM18.9614 167.205V218.757C18.9632 219.22 19.148 219.664 19.4755 219.991C19.8029 220.319 20.2465 220.504 20.7096 220.505H33.6595C34.1226 220.504 34.5662 220.319 34.8936 219.991C35.2211 219.664 35.4059 219.22 35.4077 218.757V167.205H18.9614Z" fill="#678DD5"/>
</g>
<path d="M82.7806 223.325H69.8307C68.6198 223.323 67.459 222.841 66.6027 221.985C65.7464 221.129 65.2646 219.968 65.2627 218.757V164.385H87.3486V218.757C87.3486 219.969 86.8673 221.131 86.0107 221.987C85.154 222.844 83.9921 223.325 82.7806 223.325ZM68.0825 167.205V218.757C68.0825 219.221 68.2667 219.666 68.5945 219.993C68.9224 220.321 69.3671 220.505 69.8307 220.505H82.7806C83.2442 220.505 83.6889 220.321 84.0168 219.993C84.3446 219.666 84.5288 219.221 84.5288 218.757V167.205H68.0825Z" fill="#678DD5"/>
<g opacity="0.3">
<path d="M82.7806 223.325H69.8307C68.6198 223.323 67.459 222.841 66.6027 221.985C65.7464 221.129 65.2646 219.968 65.2627 218.757V164.385H87.3486V218.757C87.3486 219.969 86.8673 221.131 86.0107 221.987C85.154 222.844 83.9921 223.325 82.7806 223.325ZM68.0825 167.205V218.757C68.0825 219.221 68.2667 219.666 68.5945 219.993C68.9224 220.321 69.3671 220.505 69.8307 220.505H82.7806C83.2442 220.505 83.6889 220.321 84.0168 219.993C84.3446 219.666 84.5288 219.221 84.5288 218.757V167.205H68.0825Z" fill="#678DD5"/>
</g>
<g opacity="0.5">
<path d="M33.6595 223.325H20.7096C19.4987 223.323 18.3379 222.841 17.4816 221.985C16.6253 221.129 16.1435 219.968 16.1416 218.757V164.385H38.2346V218.757C38.2327 219.969 37.7499 221.131 36.8921 221.988C36.0343 222.844 34.8716 223.325 33.6595 223.325ZM18.9614 167.205V218.757C18.9632 219.22 19.148 219.664 19.4755 219.991C19.8029 220.319 20.2465 220.504 20.7096 220.505H33.6595C34.1226 220.504 34.5662 220.319 34.8936 219.991C35.2211 219.664 35.4059 219.22 35.4077 218.757V167.205H18.9614Z" fill="white"/>
<g opacity="0.3">
<path d="M33.6595 223.325H20.7096C19.4987 223.323 18.3379 222.841 17.4816 221.985C16.6253 221.129 16.1435 219.968 16.1416 218.757V164.385H38.2346V218.757C38.2327 219.969 37.7499 221.131 36.8921 221.988C36.0343 222.844 34.8716 223.325 33.6595 223.325ZM18.9614 167.205V218.757C18.9632 219.22 19.148 219.664 19.4755 219.991C19.8029 220.319 20.2465 220.504 20.7096 220.505H33.6595C34.1226 220.504 34.5662 220.319 34.8936 219.991C35.2211 219.664 35.4059 219.22 35.4077 218.757V167.205H18.9614Z" fill="white"/>
</g>
</g>
<g opacity="0.5">
<path d="M82.7806 223.325H69.8307C68.6198 223.323 67.459 222.841 66.6027 221.985C65.7464 221.129 65.2646 219.968 65.2627 218.757V164.385H87.3486V218.757C87.3486 219.969 86.8673 221.131 86.0107 221.987C85.154 222.844 83.9921 223.325 82.7806 223.325ZM68.0825 167.205V218.757C68.0825 219.221 68.2667 219.666 68.5945 219.993C68.9224 220.321 69.3671 220.505 69.8307 220.505H82.7806C83.2442 220.505 83.6889 220.321 84.0168 219.993C84.3446 219.666 84.5288 219.221 84.5288 218.757V167.205H68.0825Z" fill="white"/>
<g opacity="0.3">
<path d="M82.7806 223.325H69.8307C68.6198 223.323 67.459 222.841 66.6027 221.985C65.7464 221.129 65.2646 219.968 65.2627 218.757V164.385H87.3486V218.757C87.3486 219.969 86.8673 221.131 86.0107 221.987C85.154 222.844 83.9921 223.325 82.7806 223.325ZM68.0825 167.205V218.757C68.0825 219.221 68.2667 219.666 68.5945 219.993C68.9224 220.321 69.3671 220.505 69.8307 220.505H82.7806C83.2442 220.505 83.6889 220.321 84.0168 219.993C84.3446 219.666 84.5288 219.221 84.5288 218.757V167.205H68.0825Z" fill="white"/>
</g>
</g>
<path d="M88.1169 148.502H34.2803V168.727H88.1169V148.502Z" fill="#678DD5"/>
<path opacity="0.8" d="M88.1169 148.502H34.2803V168.727H88.1169V148.502Z" fill="white"/>
<path d="M37.7913 148.502H15.7266V168.727H37.7913V148.502Z" fill="#678DD5"/>
<path opacity="0.7" d="M37.7913 148.502H15.7266V168.727H37.7913V148.502Z" fill="white"/>
<path d="M90.8455 143.863H38.2637V149.757H90.8455V143.863Z" fill="#678DD5"/>
<path opacity="0.9" d="M90.8455 143.863H38.2637V149.757H90.8455V143.863Z" fill="white"/>
<path d="M39.0812 143.863H12.9912V149.757H39.0812V143.863Z" fill="#678DD5"/>
<path opacity="0.8" d="M39.0812 143.863H12.9912V149.757H39.0812V143.863Z" fill="white"/>
<path d="M83.7886 153.134H42.1123V164.765H83.7886V153.134Z" fill="#678DD5"/>
<path opacity="0.7" d="M83.7886 153.134H42.1123V164.765H83.7886V153.134Z" fill="white"/>
<path d="M65.77 159.126C66.1962 159.126 66.605 158.956 66.9065 158.655C67.2079 158.354 67.3772 157.945 67.3772 157.518C67.3772 157.092 67.2079 156.683 66.9065 156.382C66.605 156.08 66.1962 155.911 65.77 155.911H63.6551C63.2288 155.911 62.82 156.08 62.5186 156.382C62.2172 156.683 62.0479 157.092 62.0479 157.518C62.0479 157.945 62.2172 158.354 62.5186 158.655C62.82 158.956 63.2288 159.126 63.6551 159.126H65.77Z" fill="#678DD5"/>
<path opacity="0.3" d="M65.77 159.126C66.1962 159.126 66.605 158.956 66.9065 158.655C67.2079 158.354 67.3772 157.945 67.3772 157.518C67.3772 157.092 67.2079 156.683 66.9065 156.382C66.605 156.08 66.1962 155.911 65.77 155.911H63.6551C63.2288 155.911 62.82 156.08 62.5186 156.382C62.2172 156.683 62.0479 157.092 62.0479 157.518C62.0479 157.945 62.2172 158.354 62.5186 158.655C62.82 158.956 63.2288 159.126 63.6551 159.126H65.77Z" fill="white"/>
<path d="M67.3776 157.539C67.3776 157.857 67.2834 158.168 67.1068 158.432C66.9302 158.696 66.6791 158.902 66.3854 159.024C66.0917 159.145 65.7686 159.177 65.4568 159.115C65.145 159.053 64.8586 158.9 64.6338 158.675C64.4091 158.451 64.256 158.164 64.194 157.852C64.132 157.541 64.1638 157.218 64.2854 156.924C64.4071 156.63 64.6131 156.379 64.8774 156.203C65.1417 156.026 65.4525 155.932 65.7704 155.932C66.1966 155.932 66.6054 156.101 66.9069 156.402C67.2083 156.704 67.3776 157.113 67.3776 157.539Z" fill="#678DD5"/>
<path opacity="0.5" d="M67.3776 157.539C67.3776 157.857 67.2834 158.168 67.1068 158.432C66.9302 158.696 66.6791 158.902 66.3854 159.024C66.0917 159.145 65.7686 159.177 65.4568 159.115C65.145 159.053 64.8586 158.9 64.6338 158.675C64.4091 158.451 64.256 158.164 64.194 157.852C64.132 157.541 64.1638 157.218 64.2854 156.924C64.4071 156.63 64.6131 156.379 64.8774 156.203C65.1417 156.026 65.4525 155.932 65.7704 155.932C66.1966 155.932 66.6054 156.101 66.9069 156.402C67.2083 156.704 67.3776 157.113 67.3776 157.539Z" fill="white"/>
<path d="M60.6452 140.888H61.2515C61.9564 140.888 62.4781 140.416 62.3582 139.831L57.0782 112.958C56.975 112.638 56.7695 112.36 56.4931 112.168C56.2167 111.976 55.8848 111.879 55.5485 111.894H13.5479L19.2509 140.888H60.6452Z" fill="#263238"/>
<path opacity="0.8" d="M60.6452 140.888H61.2515C61.9564 140.888 62.4781 140.416 62.3582 139.831L57.0782 112.958C56.975 112.638 56.7695 112.36 56.4931 112.168C56.2167 111.976 55.8848 111.879 55.5485 111.894H13.5479L19.2509 140.888H60.6452Z" fill="white"/>
<path d="M19.561 140.889C19.1487 140.907 18.7418 140.789 18.403 140.553C18.0642 140.318 17.8122 139.977 17.6859 139.584L12.5116 113.198C12.3706 112.493 12.9768 111.894 13.8721 111.894C14.2842 111.877 14.6905 111.995 15.0291 112.231C15.3677 112.466 15.6199 112.806 15.7473 113.198L20.9357 139.584C21.0555 140.311 20.4422 140.889 19.561 140.889Z" fill="#263238"/>
<path opacity="0.6" d="M19.561 140.889C19.1487 140.907 18.7418 140.789 18.403 140.553C18.0642 140.318 17.8122 139.977 17.6859 139.584L12.5116 113.198C12.3706 112.493 12.9768 111.894 13.8721 111.894C14.2842 111.877 14.6905 111.995 15.0291 112.231C15.3677 112.466 15.6199 112.806 15.7473 113.198L20.9357 139.584C21.0555 140.311 20.4422 140.889 19.561 140.889Z" fill="white"/>
<path d="M43.3036 140.889H88.8712V141.298C88.8712 141.986 88.5979 142.646 88.1114 143.132C87.6249 143.619 86.965 143.892 86.277 143.892H43.2754V140.882L43.3036 140.889Z" fill="#263238"/>
<path opacity="0.7" d="M43.3036 140.889H88.8712V141.298C88.8712 141.986 88.5979 142.646 88.1114 143.132C87.6249 143.619 86.965 143.892 86.277 143.892H43.2754V140.882L43.3036 140.889Z" fill="white"/>
<path d="M19.4346 140.889H51.284V141.298C51.284 141.986 51.0107 142.645 50.5241 143.132C50.0376 143.618 49.3778 143.892 48.6898 143.892H22.0288C21.3407 143.892 20.6809 143.618 20.1944 143.132C19.7079 142.645 19.4346 141.986 19.4346 141.298V140.889Z" fill="#263238"/>
<path opacity="0.5" d="M19.4346 140.889H51.284V141.298C51.284 141.986 51.0107 142.645 50.5241 143.132C50.0376 143.618 49.3778 143.892 48.6898 143.892H22.0288C21.3407 143.892 20.6809 143.618 20.1944 143.132C19.7079 142.645 19.4346 141.986 19.4346 141.298V140.889Z" fill="white"/>
<path opacity="0.2" d="M71.4316 140.889C71.472 141.169 71.6179 141.422 71.8394 141.598C72.061 141.774 72.3413 141.858 72.623 141.833H77.5576C77.8393 141.858 78.1196 141.774 78.3412 141.598C78.5627 141.422 78.7086 141.169 78.749 140.889H71.4316Z" fill="black"/>
<path d="M59.1294 138.611H23.3535L18.5176 114.009H54.2935L59.1294 138.611Z" fill="white"/>
<path d="M33.3572 136.906L36.2193 133.113C36.2193 133.113 26.0046 135.334 26.2161 130.294C26.4276 125.253 33.618 130.907 35.1901 128.44C36.7621 125.972 25.2504 123.858 28.7751 119.388C32.2998 114.919 35.7329 125.162 38.5386 123.392C41.3442 121.623 35.2606 117.048 38.5386 114.933C41.8166 112.818 40.886 120.1 42.7682 119.748C44.6504 119.395 42.0633 114.397 48.6404 114.545C48.6404 114.545 50.6354 119.402 46.8781 121.806C43.1207 124.21 51.8902 123.512 50.7341 126.797C49.578 130.082 45.0945 125.155 44.3896 126.797C43.6847 128.44 46.6243 129.575 50.149 130.322C53.6737 131.069 51.7915 135.687 46.2718 133.142C40.7521 130.597 38.1649 130.865 44.3896 134.192C50.6143 137.519 41.9505 140.353 39.3352 135.524C38.5245 134.016 38.0099 131.577 36.2052 134.721L34.5345 137.978L33.3572 136.906Z" fill="#67932A"/>
<path d="M36.79 112.754C36.8148 112.864 36.805 112.979 36.7617 113.083C36.7185 113.187 36.644 113.274 36.5486 113.334C36.4532 113.394 36.3416 113.423 36.2293 113.416C36.1169 113.41 36.0094 113.368 35.9215 113.298C35.8336 113.228 35.7698 113.132 35.7388 113.024C35.7078 112.915 35.7112 112.8 35.7485 112.694C35.7858 112.588 35.8552 112.496 35.9471 112.431C36.0389 112.366 36.1488 112.331 36.2613 112.331C36.3871 112.319 36.5126 112.357 36.6113 112.436C36.71 112.515 36.7741 112.629 36.79 112.754Z" fill="#263238"/>
</svg>
