<svg width="36" height="36" viewBox="0 0 36 36" fill="none" xmlns="http://www.w3.org/2000/svg">
<path d="M23.0496 3.23483C23.2694 2.70642 23.0193 2.09987 22.4909 1.88005C21.9625 1.66023 21.3559 1.91039 21.1361 2.4388L19.5965 6.1397C19.3767 6.66811 19.6269 7.27467 20.1553 7.49449C20.6837 7.7143 21.2902 7.46414 21.51 6.93573L23.0496 3.23483Z" fill="#7DB928"/>
<path d="M16.5312 26.8965L18.6436 25.5227L20.7559 26.8965C20.8606 26.9698 20.9748 27.0043 21.0985 27.0001C21.2222 26.9959 21.3316 26.9654 21.4267 26.9087C21.5223 26.8519 21.5961 26.7749 21.6483 26.6777C21.7004 26.5804 21.7027 26.475 21.6551 26.3616L20.8416 24.1125L22.9111 22.8603C23.0253 22.7955 23.0967 22.7104 23.1252 22.605C23.1537 22.4997 23.149 22.4024 23.1109 22.3133C23.0729 22.2244 23.0063 22.1455 22.9111 22.0764C22.816 22.0074 22.7018 21.9729 22.5686 21.9729H20.0137L19.1859 19.6387C19.1387 19.5256 19.0651 19.4385 18.965 19.3776C18.8649 19.3166 18.7577 19.2861 18.6436 19.2861C18.5298 19.2858 18.4228 19.3161 18.3227 19.3771C18.2226 19.438 18.1488 19.5252 18.1012 19.6387L17.2734 21.9729H14.7185C14.5853 21.9725 14.4711 22.0069 14.376 22.076C14.2808 22.145 14.2142 22.2241 14.1762 22.3133C14.1381 22.4024 14.1334 22.4997 14.1619 22.605C14.1905 22.7104 14.2618 22.7955 14.376 22.8603L16.4455 24.1125L15.632 26.3616C15.5848 26.475 15.5873 26.5804 15.6394 26.6777C15.6916 26.7749 15.7652 26.8519 15.8604 26.9087C15.9555 26.9657 16.0649 26.9962 16.1886 27.0001C16.3123 27.004 16.4265 26.9694 16.5312 26.8965Z" fill="#7DB928"/>
<path fill-rule="evenodd" clip-rule="evenodd" d="M28.4294 3.2553C28.6605 2.73174 28.4234 2.11995 27.8999 1.88882C27.3763 1.6577 26.7645 1.89477 26.5334 2.41833L21.3999 14.0471C21.0784 13.9524 20.7516 13.8739 20.4208 13.8121L14.8452 2.38249C14.5943 1.86812 13.9739 1.65455 13.4595 1.90547C12.9452 2.15639 12.7316 2.77678 12.9825 3.29115L18.0403 13.6592C17.0326 13.716 16.0467 13.9259 15.1147 14.2757L9.16353 2.37339C8.90758 1.8615 8.28514 1.65402 7.77325 1.90996C7.26136 2.16591 7.05388 2.78836 7.30982 3.30024L13.261 15.2025C12.6601 15.5862 12.0978 16.0365 11.5858 16.5485C9.72576 18.4086 8.68078 20.9313 8.68078 23.5619C8.68078 26.1924 9.72576 28.7152 11.5858 30.5753C13.4459 32.4353 15.9687 33.4803 18.5992 33.4803C21.2297 33.4803 23.7525 32.4353 25.6126 30.5753C27.4727 28.7152 28.5176 26.1924 28.5176 23.5619C28.5176 20.9313 27.4727 18.4086 25.6126 16.5485C24.9278 15.8638 24.1533 15.2895 23.3166 14.8371L28.4294 3.2553ZM13.0513 18.014C14.5227 16.5426 16.5183 15.716 18.5992 15.716C20.6801 15.716 22.6757 16.5426 24.1471 18.014C25.6185 19.4854 26.4451 21.481 26.4451 23.5619C26.4451 25.6427 25.6185 27.6384 24.1471 29.1098C22.6757 30.5812 20.6801 31.4078 18.5992 31.4078C16.5183 31.4078 14.5227 30.5812 13.0513 29.1098C11.5799 27.6384 10.7533 25.6427 10.7533 23.5619C10.7533 21.481 11.5799 19.4854 13.0513 18.014Z" fill="#7DB928"/>
</svg>
