<svg width="32" height="29" viewBox="0 0 32 29" fill="none" xmlns="http://www.w3.org/2000/svg">
<path fill-rule="evenodd" clip-rule="evenodd" d="M5.875 1.625C5.875 1.00368 6.37868 0.5 7 0.5H25C25.6213 0.5 26.125 1.00368 26.125 1.625V7.25C26.125 7.87132 25.6213 8.375 25 8.375C24.3787 8.375 23.875 7.87132 23.875 7.25V2.75H8.125V7.25C8.125 7.87132 7.62132 8.375 7 8.375C6.37868 8.375 5.875 7.87132 5.875 7.25V1.625Z" fill="#A0A3BD"/>
<path fill-rule="evenodd" clip-rule="evenodd" d="M5.875 17.375C5.875 16.7537 6.37868 16.25 7 16.25H25C25.6213 16.25 26.125 16.7537 26.125 17.375V26.9375C26.125 27.5588 25.6213 28.0625 25 28.0625H7C6.37868 28.0625 5.875 27.5588 5.875 26.9375V17.375ZM8.125 18.5V25.8125H23.875V18.5H8.125Z" fill="#A0A3BD"/>
<path fill-rule="evenodd" clip-rule="evenodd" d="M4.37031 8.375C3.57067 8.375 3.0625 8.96556 3.0625 9.5V19.625H7C7.62132 19.625 8.125 20.1287 8.125 20.75C8.125 21.3713 7.62132 21.875 7 21.875H1.9375C1.31618 21.875 0.8125 21.3713 0.8125 20.75V9.5C0.8125 7.55944 2.49808 6.125 4.37031 6.125H27.6297C29.5019 6.125 31.1875 7.55944 31.1875 9.5V20.75C31.1875 21.3713 30.6838 21.875 30.0625 21.875H25C24.3787 21.875 23.875 21.3713 23.875 20.75C23.875 20.1287 24.3787 19.625 25 19.625H28.9375V9.5C28.9375 8.96556 28.4293 8.375 27.6297 8.375H4.37031Z" fill="#A0A3BD"/>
<path d="M24.4375 14C25.3695 14 26.125 13.2445 26.125 12.3125C26.125 11.3805 25.3695 10.625 24.4375 10.625C23.5055 10.625 22.75 11.3805 22.75 12.3125C22.75 13.2445 23.5055 14 24.4375 14Z" fill="#A0A3BD"/>
</svg>
