<svg width="36" height="36" viewBox="0 0 36 36" fill="none" xmlns="http://www.w3.org/2000/svg">
<path fill-rule="evenodd" clip-rule="evenodd" d="M27.474 10.649C27.8381 11.0131 27.8381 11.6034 27.474 11.9674L21.2509 18.1905C19.9668 19.4746 19.2454 21.2163 19.2454 23.0322V28.6372C19.2454 29.1521 18.828 29.5695 18.3131 29.5695C17.7982 29.5695 17.3809 29.1521 17.3809 28.6372V23.0322C17.3809 20.7218 18.2987 18.5059 19.9325 16.8721L26.1556 10.649C26.5197 10.285 27.11 10.285 27.474 10.649Z" fill="#7DB928"/>
<path fill-rule="evenodd" clip-rule="evenodd" d="M21.7763 7.26323C24.5322 4.58202 28.7016 2.99743 33.0901 3.56424C33.5883 3.62859 33.9711 4.03677 34.0034 4.53805C34.3348 9.6794 32.8552 13.8356 30.159 16.3836C27.4389 18.9542 23.6193 19.7505 19.6374 18.4004C19.3318 18.2967 19.0908 18.0583 18.9839 17.7538C17.6046 13.8259 19.0147 9.94995 21.7763 7.26323ZM20.8116 16.5681C23.9234 17.4616 26.7178 16.7463 28.7167 14.8573C30.7085 12.9749 32.0308 9.80793 31.9458 5.56689C28.542 5.38329 25.3716 6.6952 23.2407 8.76841C21.0593 10.8907 20.028 13.7317 20.8116 16.5681Z" fill="#7DB928"/>
<path fill-rule="evenodd" clip-rule="evenodd" d="M5.37403 20.5571C2.96677 18.0828 1.5454 14.3415 2.05395 10.404C2.11829 9.90586 2.52647 9.52303 3.02776 9.49072C7.62284 9.19453 11.3548 10.5162 13.6494 12.9442C15.9667 15.3963 16.6805 18.8377 15.4678 22.4144C15.3642 22.72 15.1258 22.961 14.8213 23.0679C11.2781 24.3121 7.78678 23.037 5.37403 20.5571ZM13.6344 21.2378C14.3906 18.5336 13.7588 16.1174 12.1231 14.3866C10.4937 12.6624 7.75112 11.5004 4.06101 11.551C3.93291 14.5019 5.08043 17.2438 6.8792 19.0927C8.72635 20.9913 11.1827 21.8883 13.6344 21.2378Z" fill="#7DB928"/>
<path fill-rule="evenodd" clip-rule="evenodd" d="M8.11778 15.6671C8.48185 15.303 9.07212 15.303 9.43619 15.6671L17.0107 23.2416C18.4417 24.6726 19.2456 26.6134 19.2456 28.6372V32.0673C19.2456 32.5822 18.8282 32.9996 18.3133 32.9996C17.7985 32.9996 17.3811 32.5822 17.3811 32.0673V28.6372C17.3811 27.1079 16.7736 25.6413 15.6923 24.56L8.11778 16.9855C7.75371 16.6214 7.75371 16.0312 8.11778 15.6671Z" fill="#7DB928"/>
</svg>
