<svg width="48" height="48" viewBox="0 0 48 48" fill="none" xmlns="http://www.w3.org/2000/svg">
<rect width="48" height="48" rx="8" fill="#BEE882"/>
<path d="M32.7403 38.19H15.8839C13.8775 38.19 12.0427 37.1736 10.9867 35.4576C9.9307 33.7416 9.8383 31.656 10.7359 29.8476L13.0063 25.2936C13.7455 23.8152 14.9335 22.8912 16.2667 22.746C17.5999 22.6008 18.9595 23.2608 19.9891 24.5412L20.2795 24.9108C20.8603 25.6236 21.5335 26.0064 22.1935 25.9404C22.8535 25.8876 23.4607 25.4124 23.9095 24.6072L26.4043 20.106C27.4339 18.2448 28.8067 17.2812 30.2983 17.3472C31.7767 17.4264 33.0439 18.5352 33.8887 20.4888L38.0203 30.138C38.7859 31.92 38.6011 33.9528 37.5319 35.5764C36.4759 37.2264 34.6807 38.19 32.7403 38.19ZM16.6363 24.726C16.5835 24.726 16.5307 24.726 16.4779 24.7392C15.8179 24.8052 15.2107 25.3332 14.7751 26.1912L12.5047 30.7452C11.9107 31.92 11.9767 33.306 12.6631 34.428C13.3495 35.55 14.5639 36.2232 15.8839 36.2232H32.7271C34.0207 36.2232 35.1691 35.6028 35.8819 34.5204C36.5947 33.438 36.7135 32.1444 36.1987 30.9564L32.0671 21.3072C31.5655 20.1192 30.8659 19.3932 30.1927 19.3668C29.5723 19.3272 28.7671 19.9872 28.1335 21.1092L25.6387 25.6104C24.8731 26.9832 23.6719 27.8412 22.3651 27.96C21.0583 28.0656 19.7251 27.432 18.7351 26.1912L18.4447 25.8216C17.8903 25.0956 17.2567 24.726 16.6363 24.726Z" fill="#33589C"/>
<path d="M17.7049 19.7098C14.9857 19.7098 12.7549 17.4922 12.7549 14.7598C12.7549 12.0274 14.9725 9.80981 17.7049 9.80981C20.4373 9.80981 22.6549 12.0274 22.6549 14.7598C22.6549 17.4922 20.4373 19.7098 17.7049 19.7098ZM17.7049 11.7898C16.0681 11.7898 14.7349 13.123 14.7349 14.7598C14.7349 16.3966 16.0681 17.7298 17.7049 17.7298C19.3417 17.7298 20.6749 16.3966 20.6749 14.7598C20.6749 13.123 19.3417 11.7898 17.7049 11.7898Z" fill="#33589C"/>
</svg>
