<svg width="28" height="28" viewBox="0 0 28 28" fill="none" xmlns="http://www.w3.org/2000/svg">
<path fill-rule="evenodd" clip-rule="evenodd" d="M3 3.96443C3 2.82341 3.92498 1.89844 5.06599 1.89844H8.41625C8.9405 1.89844 9.36549 2.32343 9.36549 2.84768C9.36549 3.37193 8.9405 3.79692 8.41625 3.79692H5.06599C4.97348 3.79692 4.89848 3.87192 4.89848 3.96443V7.31469C4.89848 7.83894 4.47349 8.26393 3.94924 8.26393C3.42499 8.26393 3 7.83894 3 7.31469V3.96443Z" fill="#A0A3BD"/>
<path fill-rule="evenodd" clip-rule="evenodd" d="M5.06599 26.1323C3.92498 26.1323 3 25.2073 3 24.0663L3 20.7161C3 20.1918 3.42499 19.7668 3.94924 19.7668C4.47349 19.7668 4.89848 20.1918 4.89848 20.7161L4.89848 24.0663C4.89848 24.1588 4.97348 24.2338 5.06599 24.2338L8.41625 24.2338C8.9405 24.2338 9.36549 24.6588 9.36549 25.1831C9.36549 25.7073 8.9405 26.1323 8.41625 26.1323L5.06599 26.1323Z" fill="#A0A3BD"/>
<path fill-rule="evenodd" clip-rule="evenodd" d="M25 24.0663C25 25.2073 24.075 26.1323 22.934 26.1323L19.5837 26.1323C19.0595 26.1323 18.6345 25.7073 18.6345 25.1831C18.6345 24.6588 19.0595 24.2338 19.5837 24.2338L22.934 24.2338C23.0265 24.2338 23.1015 24.1588 23.1015 24.0663L23.1015 20.7161C23.1015 20.1918 23.5265 19.7668 24.0508 19.7668C24.575 19.7668 25 20.1918 25 20.7161L25 24.0663Z" fill="#A0A3BD"/>
<path fill-rule="evenodd" clip-rule="evenodd" d="M22.934 1.89844C24.075 1.89844 25 2.82341 25 3.96443L25 7.31469C25 7.83894 24.575 8.26393 24.0508 8.26393C23.5265 8.26393 23.1015 7.83894 23.1015 7.31469L23.1015 3.96443C23.1015 3.87192 23.0265 3.79692 22.934 3.79692L19.5837 3.79692C19.0595 3.79692 18.6345 3.37193 18.6345 2.84768C18.6345 2.32343 19.0595 1.89844 19.5837 1.89844L22.934 1.89844Z" fill="#A0A3BD"/>
<path fill-rule="evenodd" clip-rule="evenodd" d="M9.03419 8.03419V20.359H18.9658V11.6264L15.3736 8.03419H9.03419ZM7.47314 6.47314C7.77608 6.17019 8.18696 6 8.61538 6H15.7949C16.0646 6 16.3233 6.10716 16.5141 6.2979L20.7021 10.4859C20.8928 10.6767 21 10.9354 21 11.2051V20.7778C21 21.2062 20.8298 21.6171 20.5269 21.92C20.2239 22.223 19.813 22.3932 19.3846 22.3932H8.61538C8.18696 22.3932 7.77608 22.223 7.47314 21.92C7.17019 21.6171 7 21.2062 7 20.7778V7.61538C7 7.18696 7.17019 6.77608 7.47314 6.47314Z" fill="#A0A3BD"/>
<path fill-rule="evenodd" clip-rule="evenodd" d="M16.0169 11.9829C15.6629 11.9829 15.376 11.671 15.376 11.2862V6.69807C15.376 6.0774 16.0664 5.76657 16.4701 6.20545L20.6912 10.7936C21.095 11.2325 20.809 11.9829 20.238 11.9829H16.0169Z" fill="#A0A3BD"/>
</svg>
