<svg width="180" height="164" viewBox="0 0 180 164" fill="none" xmlns="http://www.w3.org/2000/svg">
<g clip-path="url(#clip0_3139_26828)">
<circle cx="86.3593" cy="66.5507" r="60.5507" fill="white"/>
<path d="M16.9585 43.3828C16.9585 43.3828 3.0829 46.9057 7.28762 49.7241C11.4923 52.4015 21.4435 57.0518 30.8341 53.9516C40.2246 50.8514 30.8341 46.483 30.9742 46.483C31.1144 46.483 16.9585 43.3828 16.9585 43.3828Z" fill="#F1F4F9" stroke="#D9DBE9" stroke-width="1.6" stroke-miterlimit="10"/>
<path d="M0 42.2551C5.04567 43.8052 20.6031 41.2686 30.5543 34.7864C38.4031 44.5097 41.3464 47.0463 44.1496 47.3281C39.8047 51.6966 25.3685 58.7425 17.2394 49.5828C7.70866 55.6423 0 42.2551 0 42.2551Z" fill="white" stroke="#D9DBE9" stroke-width="1.6" stroke-miterlimit="10" stroke-linejoin="round"/>
<path d="M135.99 61.6358C141.316 61.9177 155.752 55.4354 163.601 46.6985C173.693 54.1672 177.056 55.8582 180 55.4354C176.776 60.7903 166.965 72.4866 153.089 73.3321C142.998 67.4135 135.99 61.6358 135.99 61.6358Z" fill="white" stroke="#D9DBE9" stroke-width="1.6" stroke-miterlimit="10" stroke-linejoin="round"/>
<path d="M89.9509 153.777C88.8972 148.549 79.0232 136.183 68.6066 130.757C73.3262 119.124 74.126 115.445 72.9834 112.7C78.9725 114.488 92.7439 121.076 97.0191 134.304C93.8008 145.551 89.9509 153.777 89.9509 153.777Z" fill="white" stroke="#D9DBE9" stroke-width="1.6" stroke-miterlimit="10" stroke-linejoin="round"/>
<path d="M68.1376 103.516H106.557C107.521 103.516 108.446 103.133 109.128 102.451C109.81 101.769 110.193 100.844 110.193 99.8791V87.9155H118.875C121.045 87.9155 123.126 87.0537 124.661 85.519C126.195 83.9851 127.057 81.9038 127.057 79.7338V54.6053C127.057 52.4353 126.195 50.354 124.661 48.82C123.126 47.2854 121.045 46.4236 118.875 46.4236H111.066V33.46C111.066 32.4955 110.682 31.5702 110.001 30.8886C109.319 30.2062 108.394 29.8232 107.429 29.8232H67.2649C66.3004 29.8232 65.3751 30.2062 64.6935 30.8886C64.0118 31.5703 63.6281 32.4955 63.6281 33.46V46.4236H55.8282C53.6582 46.4236 51.5769 47.2854 50.0429 48.82C48.5083 50.354 47.6465 52.4353 47.6465 54.6053V79.7338C47.6465 81.9038 48.5083 83.9851 50.0429 85.519C51.5769 87.0536 53.6582 87.9155 55.8282 87.9155H64.5101V99.8791C64.5101 100.842 64.8919 101.766 65.5716 102.447C66.2521 103.129 67.1747 103.513 68.1374 103.516L68.1376 103.516ZM108.365 99.8798V99.8792C108.365 100.362 108.174 100.824 107.833 101.165C107.491 101.506 107.029 101.698 106.547 101.698H68.1378C67.1339 101.698 66.3197 100.884 66.3197 99.8792V73.4244H108.374V99.8792L108.365 99.8798ZM65.446 33.4604C65.446 32.4559 66.2596 31.6417 67.2641 31.6417H107.428C107.911 31.6417 108.373 31.8332 108.714 32.1744C109.055 32.5156 109.246 32.9778 109.246 33.4604V46.424H65.4474L65.446 33.4604ZM55.8275 86.0972C54.1399 86.0972 52.5211 85.4269 51.3276 84.2336C50.1341 83.0401 49.4639 81.4212 49.4639 79.7337V54.6052C49.4639 52.9177 50.1342 51.2989 51.3276 50.1054C52.521 48.9119 54.1399 48.2417 55.8275 48.2417H118.873C120.561 48.2417 122.18 48.912 123.373 50.1054C124.567 51.2988 125.237 52.9177 125.237 54.6052V79.7337C125.237 81.4212 124.567 83.04 123.373 84.2336C122.18 85.427 120.562 86.0972 118.873 86.0972H110.192V72.5153C110.192 72.2743 110.096 72.0428 109.925 71.8723C109.755 71.7017 109.524 71.6059 109.283 71.6059H65.4091C64.9069 71.6059 64.5004 72.0131 64.5004 72.5153V86.0972L55.8275 86.0972Z" fill="#D9DBE9"/>
<path d="M113.647 65.1599C115.055 65.1599 116.405 64.6006 117.401 63.605C118.397 62.6094 118.956 61.2587 118.956 59.8509C118.956 58.4431 118.397 57.0925 117.401 56.0968C116.405 55.1012 115.055 54.5419 113.647 54.5419C112.239 54.5419 110.888 55.1012 109.893 56.0968C108.897 57.0924 108.338 58.4431 108.338 59.8509C108.34 61.2581 108.9 62.6074 109.895 63.6024C110.89 64.5974 112.24 65.1574 113.647 65.1599ZM113.647 56.36C114.573 56.36 115.461 56.7278 116.116 57.3822C116.77 58.0373 117.138 58.9251 117.138 59.8509C117.138 60.7768 116.77 61.6646 116.116 62.3196C115.46 62.974 114.573 63.3418 113.647 63.3418C112.721 63.3418 111.833 62.974 111.178 62.3196C110.524 61.6645 110.156 60.7768 110.156 59.8509C110.156 58.9251 110.524 58.0373 111.178 57.3822C111.833 56.7278 112.721 56.36 113.647 56.36Z" fill="#D9DBE9"/>
<path d="M99.9193 82.1246H74.773C74.2714 82.1246 73.8643 82.5317 73.8643 83.034C73.8643 83.5362 74.2714 83.9427 74.773 83.9427H99.9193C100.421 83.9427 100.828 83.5362 100.828 83.034C100.828 82.5317 100.421 82.1246 99.9193 82.1246Z" fill="#D9DBE9"/>
<path d="M99.9193 91.2159H74.773C74.2714 91.2159 73.8643 91.6231 73.8643 92.1253C73.8643 92.6275 74.2714 93.034 74.773 93.034H99.9193C100.421 93.034 100.828 92.6275 100.828 92.1253C100.828 91.6231 100.421 91.2159 99.9193 91.2159Z" fill="#D9DBE9"/>
</g>
<defs>
<clipPath id="clip0_3139_26828">
<rect width="180" height="164" fill="white"/>
</clipPath>
</defs>
</svg>
