<svg width="61" height="60" viewBox="0 0 61 60" fill="none" xmlns="http://www.w3.org/2000/svg">
<circle cx="31" cy="30" r="30" fill="#FEE2E2"/>
<path d="M31 20.25C29.0716 20.25 27.1866 20.8218 25.5832 21.8932C23.9798 22.9645 22.7301 24.4873 21.9922 26.2688C21.2542 28.0504 21.0611 30.0108 21.4373 31.9021C21.8136 33.7934 22.7422 35.5307 24.1057 36.8943C25.4693 38.2579 27.2066 39.1865 29.0979 39.5627C30.9892 39.9389 32.9496 39.7458 34.7312 39.0078C36.5127 38.2699 38.0355 37.0202 39.1068 35.4168C40.1782 33.8134 40.75 31.9284 40.75 30C40.745 27.4157 39.7162 24.9386 37.8888 23.1112C36.0614 21.2838 33.5843 20.255 31 20.25ZM30.25 25.5C30.25 25.3011 30.329 25.1103 30.4697 24.9697C30.6103 24.829 30.8011 24.75 31 24.75C31.1989 24.75 31.3897 24.829 31.5303 24.9697C31.671 25.1103 31.75 25.3011 31.75 25.5V30.75C31.75 30.9489 31.671 31.1397 31.5303 31.2803C31.3897 31.421 31.1989 31.5 31 31.5C30.8011 31.5 30.6103 31.421 30.4697 31.2803C30.329 31.1397 30.25 30.9489 30.25 30.75V25.5ZM31 35.25C30.7775 35.25 30.56 35.184 30.375 35.0604C30.19 34.9368 30.0458 34.7611 29.9606 34.5555C29.8755 34.35 29.8532 34.1238 29.8966 33.9055C29.94 33.6873 30.0472 33.4868 30.2045 33.3295C30.3618 33.1722 30.5623 33.065 30.7805 33.0216C30.9988 32.9782 31.225 33.0005 31.4305 33.0856C31.6361 33.1708 31.8118 33.315 31.9354 33.5C32.059 33.685 32.125 33.9025 32.125 34.125C32.125 34.4234 32.0065 34.7095 31.7955 34.9205C31.5845 35.1315 31.2984 35.25 31 35.25Z" fill="#D45656"/>
</svg>
